<svg xmlns="http://www.w3.org/2000/svg" xmlns:xlink="http://www.w3.org/1999/xlink" width="50" zoomAndPan="magnify" viewBox="0 0 37.5 37.499999" height="50" preserveAspectRatio="xMidYMid meet" version="1.0"><defs><clipPath id="10804ea0c2"><path d="M 5 25 L 13 25 L 13 32.75 L 5 32.75 Z M 5 25 " clip-rule="nonzero"/></clipPath><clipPath id="2202ea0334"><path d="M 25 25 L 33 25 L 33 32.75 L 25 32.75 Z M 25 25 " clip-rule="nonzero"/></clipPath><clipPath id="63cca74f15"><path d="M 20 4.625 L 21 4.625 L 21 6 L 20 6 Z M 20 4.625 " clip-rule="nonzero"/></clipPath></defs><g clip-path="url(#10804ea0c2)"><path fill="#100f0d" d="M 8.667969 31.335938 C 7.476562 31.335938 6.519531 30.351562 6.519531 29.148438 C 6.519531 27.9375 7.476562 26.957031 8.667969 26.957031 C 9.855469 26.957031 10.8125 27.9375 10.8125 29.148438 C 10.8125 30.351562 9.855469 31.335938 8.667969 31.335938 Z M 8.664062 25.554688 C 6.71875 25.554688 5.144531 27.164062 5.144531 29.148438 C 5.144531 31.128906 6.71875 32.738281 8.664062 32.738281 C 10.613281 32.738281 12.1875 31.128906 12.1875 29.148438 C 12.1875 27.164062 10.613281 25.554688 8.664062 25.554688 " fill-opacity="1" fill-rule="nonzero"/></g><path fill="#100f0d" d="M 28.808594 30.492188 C 28.078125 30.492188 27.492188 29.886719 27.492188 29.148438 C 27.492188 28.40625 28.078125 27.804688 28.808594 27.804688 C 29.535156 27.804688 30.125 28.40625 30.125 29.148438 C 30.125 29.886719 29.535156 30.492188 28.808594 30.492188 " fill-opacity="1" fill-rule="nonzero"/><path fill="#100f0d" d="M 8.667969 30.488281 C 7.9375 30.488281 7.347656 29.886719 7.347656 29.148438 C 7.347656 28.402344 7.9375 27.804688 8.667969 27.804688 C 9.394531 27.804688 9.984375 28.402344 9.984375 29.148438 C 9.984375 29.886719 9.394531 30.488281 8.667969 30.488281 " fill-opacity="1" fill-rule="nonzero"/><g clip-path="url(#2202ea0334)"><path fill="#100f0d" d="M 28.808594 31.335938 C 27.621094 31.335938 26.660156 30.351562 26.660156 29.148438 C 26.660156 27.9375 27.621094 26.957031 28.808594 26.957031 C 29.996094 26.957031 30.957031 27.9375 30.957031 29.148438 C 30.957031 30.351562 29.996094 31.335938 28.808594 31.335938 Z M 28.808594 25.554688 C 26.863281 25.554688 25.285156 27.164062 25.285156 29.148438 C 25.285156 31.128906 26.863281 32.738281 28.808594 32.738281 C 30.75 32.738281 32.332031 31.128906 32.332031 29.148438 C 32.332031 27.164062 30.75 25.554688 28.808594 25.554688 " fill-opacity="1" fill-rule="nonzero"/></g><path fill="#100f0d" d="M 33.355469 19.265625 L 26.898438 19.265625 C 26.75 19.265625 26.632812 19.144531 26.632812 18.996094 L 26.632812 13.914062 C 26.632812 13.761719 26.75 13.640625 26.898438 13.640625 L 28.125 13.640625 C 28.195312 13.640625 28.261719 13.671875 28.3125 13.71875 L 33.535156 18.800781 C 33.710938 18.96875 33.59375 19.265625 33.355469 19.265625 Z M 18.75 18.679688 L 14.613281 18.679688 L 14.613281 22.964844 L 11.011719 22.964844 L 11.011719 18.679688 L 6.824219 18.679688 L 6.824219 15.035156 L 11.011719 15.035156 L 11.011719 10.875 L 14.613281 10.875 L 14.613281 15.035156 L 18.75 15.035156 Z M 36.929688 20.679688 C 36.929688 20.0625 36.6875 19.476562 36.265625 19.042969 L 29.59375 12.316406 C 29.167969 11.886719 28.59375 11.648438 28.003906 11.648438 L 24.632812 11.648438 L 24.632812 10.359375 C 24.632812 9.402344 23.875 8.628906 22.9375 8.628906 L 1.785156 8.628906 C 0.851562 8.628906 0.0859375 9.402344 0.0859375 10.359375 L 0.0859375 10.394531 L 0.0742188 10.394531 L 0.0742188 10.632812 L 0.0859375 26.730469 C 0.0859375 27.6875 0.847656 28.464844 1.785156 28.464844 L 4.058594 28.464844 C 4.386719 26.167969 6.328125 24.402344 8.667969 24.402344 C 11.003906 24.402344 12.945312 26.167969 13.273438 28.464844 L 24.199219 28.464844 C 24.527344 26.167969 26.46875 24.402344 28.804688 24.402344 C 31.148438 24.402344 33.089844 26.167969 33.417969 28.464844 L 35.234375 28.464844 C 36.171875 28.464844 36.933594 27.6875 36.933594 26.730469 L 36.929688 20.679688 " fill-opacity="1" fill-rule="nonzero"/><g clip-path="url(#63cca74f15)"><path fill="#100f0d" d="M 20.652344 5.65625 L 20.4375 5.65625 C 20.421875 5.65625 20.40625 5.640625 20.40625 5.621094 L 20.40625 4.652344 C 20.40625 4.632812 20.421875 4.621094 20.4375 4.621094 L 20.652344 4.621094 C 20.671875 4.621094 20.683594 4.632812 20.683594 4.652344 L 20.683594 5.621094 C 20.683594 5.640625 20.671875 5.65625 20.652344 5.65625 " fill-opacity="1" fill-rule="nonzero"/></g><path fill="#100f0d" d="M 21.535156 6.015625 L 21.363281 5.890625 C 21.347656 5.878906 21.34375 5.859375 21.355469 5.84375 L 21.917969 5.058594 C 21.929688 5.046875 21.949219 5.042969 21.964844 5.054688 L 22.136719 5.183594 C 22.152344 5.191406 22.15625 5.210938 22.144531 5.226562 L 21.582031 6.011719 C 21.570312 6.023438 21.550781 6.027344 21.535156 6.015625 " fill-opacity="1" fill-rule="nonzero"/><path fill="#100f0d" d="M 22.039062 6.835938 L 21.972656 6.628906 C 21.964844 6.613281 21.976562 6.59375 21.992188 6.589844 L 22.90625 6.292969 C 22.921875 6.289062 22.941406 6.296875 22.945312 6.316406 L 23.011719 6.523438 C 23.015625 6.539062 23.007812 6.558594 22.988281 6.5625 L 22.078125 6.859375 C 22.0625 6.863281 22.042969 6.855469 22.039062 6.835938 " fill-opacity="1" fill-rule="nonzero"/><path fill="#100f0d" d="M 19.132812 6.597656 L 19.0625 6.804688 C 19.054688 6.820312 19.039062 6.832031 19.023438 6.824219 L 18.117188 6.511719 C 18.097656 6.503906 18.089844 6.484375 18.097656 6.46875 L 18.164062 6.261719 C 18.171875 6.246094 18.191406 6.238281 18.207031 6.242188 L 19.113281 6.558594 C 19.128906 6.5625 19.136719 6.582031 19.132812 6.597656 " fill-opacity="1" fill-rule="nonzero"/><path fill="#100f0d" d="M 19.757812 5.871094 L 19.582031 5.996094 C 19.566406 6.007812 19.546875 6.003906 19.535156 5.988281 L 18.988281 5.191406 C 18.980469 5.179688 18.980469 5.15625 18.996094 5.148438 L 19.171875 5.023438 C 19.1875 5.011719 19.207031 5.015625 19.21875 5.03125 L 19.765625 5.828125 C 19.773438 5.839844 19.773438 5.863281 19.757812 5.871094 " fill-opacity="1" fill-rule="nonzero"/><path fill="#100f0d" d="M 21.566406 8.101562 L 19.527344 8.101562 L 19.527344 6.445312 C 19.527344 6.316406 19.632812 6.207031 19.761719 6.207031 L 21.332031 6.207031 C 21.460938 6.207031 21.566406 6.316406 21.566406 6.445312 L 21.566406 8.101562 " fill-opacity="1" fill-rule="nonzero"/></svg>