<svg xmlns="http://www.w3.org/2000/svg" xmlns:xlink="http://www.w3.org/1999/xlink" width="50" zoomAndPan="magnify" viewBox="0 0 37.5 37.499999" height="50" preserveAspectRatio="xMidYMid meet" version="1.0"><defs><g/><clipPath id="7273f279c5"><path d="M 15 3.699219 L 19 3.699219 L 19 7 L 15 7 Z M 15 3.699219 " clip-rule="nonzero"/></clipPath><clipPath id="dafb2bd843"><path d="M 15 22 L 23 22 L 23 32.566406 L 15 32.566406 Z M 15 22 " clip-rule="nonzero"/></clipPath><clipPath id="d3e1238417"><path d="M 24 23 L 31 23 L 31 32.566406 L 24 32.566406 Z M 24 23 " clip-rule="nonzero"/></clipPath><clipPath id="f132cbb2fa"><path d="M 6 23 L 13 23 L 13 32.566406 L 6 32.566406 Z M 6 23 " clip-rule="nonzero"/></clipPath><clipPath id="02897b69cc"><path d="M 3.699219 9 L 12 9 L 12 18 L 3.699219 18 Z M 3.699219 9 " clip-rule="nonzero"/></clipPath><clipPath id="0526d894a5"><path d="M 25 9 L 33.304688 9 L 33.304688 18 L 25 18 Z M 25 9 " clip-rule="nonzero"/></clipPath><clipPath id="74276b1ebb"><path d="M 35 36 L 37.007812 36 L 37.007812 37.007812 L 35 37.007812 Z M 35 36 " clip-rule="nonzero"/></clipPath></defs><path fill="#000000" d="M 12.492188 8.304688 L 7.648438 8.304688 L 7.648438 9.226562 L 12.332031 9.226562 Z M 12.492188 8.304688 " fill-opacity="1" fill-rule="nonzero"/><path fill="#000000" d="M 10.613281 17.839844 L 4.214844 17.839844 C 4.359375 19.214844 5.738281 20.300781 7.414062 20.300781 C 9.089844 20.300781 10.46875 19.214844 10.613281 17.839844 Z M 10.613281 17.839844 " fill-opacity="1" fill-rule="nonzero"/><path fill="#000000" d="M 18.253906 7.4375 C 18.496094 7.800781 18.578125 8.238281 18.480469 8.667969 C 18.3125 9.414062 17.636719 9.921875 16.890625 9.894531 C 16.984375 10.132812 17.171875 10.320312 17.417969 10.417969 C 17.90625 10.613281 18.460938 10.371094 18.652344 9.882812 L 18.820312 9.460938 L 20.292969 5.71875 C 20.386719 5.484375 20.382812 5.222656 20.28125 4.988281 C 20.179688 4.757812 19.996094 4.574219 19.757812 4.480469 C 19.273438 4.289062 18.71875 4.527344 18.527344 5.019531 L 17.757812 6.960938 C 17.953125 7.082031 18.121094 7.242188 18.253906 7.4375 Z M 18.253906 7.4375 " fill-opacity="1" fill-rule="nonzero"/><g clip-path="url(#7273f279c5)"><path fill="#000000" d="M 17.324219 6.785156 L 17.976562 5.136719 C 18.070312 4.898438 18.066406 4.640625 17.964844 4.40625 C 17.863281 4.171875 17.679688 3.992188 17.441406 3.898438 C 16.953125 3.703125 16.402344 3.945312 16.207031 4.433594 L 15.410156 6.457031 L 17.207031 6.757812 C 17.246094 6.765625 17.285156 6.773438 17.324219 6.785156 Z M 17.324219 6.785156 " fill-opacity="1" fill-rule="nonzero"/></g><path fill="#000000" d="M 29.351562 8.304688 L 24.945312 8.304688 C 24.941406 8.507812 24.933594 8.828125 24.921875 9.226562 L 29.351562 9.226562 Z M 29.351562 8.304688 " fill-opacity="1" fill-rule="nonzero"/><path fill="#000000" d="M 19.265625 10.363281 C 19.367188 10.597656 19.550781 10.777344 19.789062 10.871094 C 20.277344 11.0625 20.828125 10.824219 21.023438 10.335938 L 22.273438 7.160156 L 22.40625 6.824219 C 22.5 6.589844 22.496094 6.328125 22.394531 6.09375 C 22.292969 5.863281 22.109375 5.679688 21.871094 5.585938 C 21.382812 5.394531 20.832031 5.632812 20.636719 6.125 L 19.253906 9.632812 C 19.160156 9.871094 19.164062 10.128906 19.265625 10.363281 Z M 19.265625 10.363281 " fill-opacity="1" fill-rule="nonzero"/><path fill="#000000" d="M 21.589844 10.171875 C 21.496094 10.410156 21.5 10.667969 21.601562 10.902344 C 21.703125 11.136719 21.886719 11.316406 22.125 11.410156 C 22.613281 11.601562 23.164062 11.363281 23.359375 10.875 L 24.476562 8.035156 C 24.570312 7.800781 24.566406 7.539062 24.464844 7.308594 C 24.363281 7.074219 24.179688 6.890625 23.941406 6.796875 C 23.453125 6.605469 22.902344 6.84375 22.707031 7.335938 Z M 21.589844 10.171875 " fill-opacity="1" fill-rule="nonzero"/><g clip-path="url(#dafb2bd843)"><path fill="#000000" d="M 15.519531 22.933594 L 22.421875 22.933594 L 22.421875 32.570312 L 15.519531 32.570312 Z M 15.519531 22.933594 " fill-opacity="1" fill-rule="nonzero"/></g><path fill="#000000" d="M 22.671875 18.980469 L 15.273438 18.980469 C 15.074219 18.980469 14.914062 19.140625 14.914062 19.339844 L 14.914062 22.105469 C 14.914062 22.304688 15.074219 22.464844 15.273438 22.464844 L 22.671875 22.464844 C 22.867188 22.464844 23.027344 22.304688 23.027344 22.105469 L 23.027344 19.339844 C 23.027344 19.140625 22.867188 18.980469 22.671875 18.980469 Z M 22.671875 18.980469 " fill-opacity="1" fill-rule="nonzero"/><path fill="#000000" d="M 23.792969 11.046875 C 23.574219 11.605469 23.039062 11.949219 22.472656 11.949219 C 22.300781 11.949219 22.121094 11.914062 21.953125 11.847656 C 21.601562 11.707031 21.324219 11.4375 21.171875 11.089844 C 21.160156 11.058594 21.148438 11.027344 21.136719 10.996094 C 20.871094 11.257812 20.511719 11.410156 20.136719 11.410156 C 19.964844 11.410156 19.789062 11.375 19.617188 11.308594 C 19.265625 11.167969 18.988281 10.898438 18.835938 10.550781 C 18.828125 10.53125 18.820312 10.511719 18.8125 10.496094 C 18.546875 10.789062 18.164062 10.957031 17.765625 10.957031 C 17.59375 10.957031 17.417969 10.925781 17.246094 10.855469 C 16.804688 10.679688 16.476562 10.285156 16.378906 9.824219 L 15.761719 9.71875 C 15.664062 9.703125 15.570312 9.726562 15.492188 9.785156 C 15.414062 9.84375 15.363281 9.925781 15.347656 10.023438 L 15.226562 10.878906 C 17.21875 11.242188 18.855469 12.132812 20.082031 13.535156 C 20.167969 13.632812 20.160156 13.78125 20.0625 13.867188 C 20.015625 13.90625 19.960938 13.925781 19.90625 13.925781 C 19.839844 13.925781 19.777344 13.898438 19.730469 13.84375 C 18.578125 12.53125 17.039062 11.691406 15.160156 11.34375 L 15.128906 11.554688 C 15.109375 11.683594 14.992188 11.773438 14.863281 11.753906 C 14.734375 11.734375 14.648438 11.617188 14.664062 11.488281 L 14.886719 9.957031 C 14.917969 9.734375 15.035156 9.535156 15.214844 9.40625 C 15.394531 9.269531 15.617188 9.21875 15.839844 9.253906 L 16.765625 9.410156 C 17.339844 9.507812 17.894531 9.136719 18.023438 8.5625 C 18.09375 8.261719 18.035156 7.957031 17.863281 7.699219 C 17.695312 7.441406 17.433594 7.273438 17.128906 7.222656 L 14.710938 6.816406 C 13.917969 6.683594 13.15625 7.222656 13.019531 8.019531 L 12.511719 10.921875 C 12.367188 11.753906 12.515625 12.617188 12.925781 13.351562 L 15.054688 17.140625 C 15.289062 17.5625 15.441406 18.03125 15.496094 18.511719 L 22.433594 18.511719 C 22.480469 17.894531 22.722656 17.304688 23.121094 16.835938 C 23.441406 16.457031 23.695312 16.035156 23.882812 15.589844 C 24.214844 14.785156 24.386719 11.667969 24.453125 9.378906 Z M 23.792969 11.046875 " fill-opacity="1" fill-rule="nonzero"/><path fill="#000000" d="M 29.585938 20.300781 C 31.261719 20.300781 32.640625 19.214844 32.785156 17.839844 L 26.390625 17.839844 C 26.53125 19.214844 27.910156 20.300781 29.585938 20.300781 Z M 29.585938 20.300781 " fill-opacity="1" fill-rule="nonzero"/><path fill="#000000" d="M 27.296875 22.011719 C 27.339844 21.898438 27.339844 21.777344 27.289062 21.667969 C 27.242188 21.558594 27.15625 21.472656 27.046875 21.429688 C 26.816406 21.339844 26.558594 21.453125 26.46875 21.683594 L 26.054688 22.730469 L 26.953125 22.882812 Z M 27.296875 22.011719 " fill-opacity="1" fill-rule="nonzero"/><path fill="#000000" d="M 30.777344 23.097656 C 30.550781 23.007812 30.289062 23.121094 30.199219 23.351562 L 29.558594 24.980469 C 29.46875 25.210938 29.578125 25.472656 29.808594 25.5625 C 30.035156 25.65625 30.296875 25.542969 30.386719 25.3125 L 31.03125 23.679688 C 31.074219 23.570312 31.070312 23.445312 31.023438 23.335938 C 30.976562 23.226562 30.890625 23.140625 30.777344 23.097656 Z M 30.777344 23.097656 " fill-opacity="1" fill-rule="nonzero"/><path fill="#000000" d="M 26.9375 24.875 C 26.984375 24.925781 27.039062 24.96875 27.105469 24.992188 C 27.335938 25.085938 27.59375 24.972656 27.683594 24.742188 L 28.574219 22.480469 L 28.628906 22.347656 C 28.71875 22.117188 28.605469 21.855469 28.375 21.765625 C 28.265625 21.722656 28.144531 21.722656 28.035156 21.773438 C 27.925781 21.820312 27.84375 21.90625 27.796875 22.019531 L 27.730469 22.183594 L 27.386719 23.0625 C 27.480469 23.128906 27.5625 23.214844 27.632812 23.316406 C 27.785156 23.550781 27.839844 23.828125 27.777344 24.101562 C 27.683594 24.519531 27.339844 24.820312 26.9375 24.875 Z M 26.9375 24.875 " fill-opacity="1" fill-rule="nonzero"/><g clip-path="url(#d3e1238417)"><path fill="#000000" d="M 29.972656 26.066406 C 29.859375 26.066406 29.746094 26.046875 29.636719 26 C 29.433594 25.921875 29.269531 25.773438 29.167969 25.582031 C 29.113281 25.621094 29.054688 25.652344 28.996094 25.679688 C 28.878906 25.730469 28.753906 25.757812 28.632812 25.757812 C 28.519531 25.757812 28.402344 25.734375 28.292969 25.691406 C 28.101562 25.613281 27.941406 25.476562 27.839844 25.296875 C 27.679688 25.425781 27.476562 25.496094 27.269531 25.496094 C 27.15625 25.496094 27.042969 25.476562 26.933594 25.433594 C 26.667969 25.328125 26.46875 25.101562 26.390625 24.832031 L 26.101562 24.785156 C 26.0625 24.777344 26.035156 24.792969 26.019531 24.804688 C 26.007812 24.8125 25.984375 24.835938 25.980469 24.875 L 25.882812 25.546875 C 26.878906 25.839844 27.695312 26.464844 28.304688 27.410156 C 28.375 27.519531 28.34375 27.664062 28.238281 27.734375 C 28.128906 27.804688 27.984375 27.773438 27.914062 27.664062 C 27.320312 26.75 26.550781 26.1875 25.566406 25.949219 C 25.449219 25.921875 25.371094 25.808594 25.390625 25.6875 L 25.515625 24.804688 C 25.539062 24.652344 25.621094 24.515625 25.746094 24.421875 C 25.871094 24.332031 26.023438 24.292969 26.179688 24.320312 L 26.710938 24.410156 C 26.988281 24.457031 27.257812 24.273438 27.320312 23.996094 C 27.351562 23.851562 27.324219 23.703125 27.242188 23.578125 C 27.160156 23.453125 27.03125 23.371094 26.886719 23.347656 L 25.5 23.113281 C 25.097656 23.046875 24.710938 23.320312 24.640625 23.722656 L 24.351562 25.394531 C 24.269531 25.847656 24.351562 26.320312 24.578125 26.722656 L 25.800781 28.902344 C 25.980469 29.230469 26.078125 29.601562 26.078125 29.976562 L 26.078125 32.570312 L 29.84375 32.570312 L 29.84375 29.875 C 29.84375 29.449219 29.992188 29.035156 30.265625 28.710938 C 30.445312 28.5 30.585938 28.269531 30.691406 28.023438 C 30.851562 27.632812 30.9375 26.242188 30.980469 25.085938 L 30.824219 25.484375 C 30.679688 25.847656 30.335938 26.066406 29.972656 26.066406 Z M 29.972656 26.066406 " fill-opacity="1" fill-rule="nonzero"/></g><path fill="#000000" d="M 29.839844 22.984375 C 29.929688 22.753906 29.820312 22.492188 29.589844 22.402344 C 29.359375 22.3125 29.101562 22.421875 29.011719 22.652344 L 28.214844 24.671875 C 28.171875 24.785156 28.175781 24.90625 28.222656 25.015625 C 28.269531 25.125 28.355469 25.210938 28.46875 25.253906 C 28.578125 25.296875 28.699219 25.296875 28.808594 25.25 C 28.917969 25.199219 29.003906 25.113281 29.046875 25.003906 L 29.765625 23.175781 Z M 29.839844 22.984375 " fill-opacity="1" fill-rule="nonzero"/><path fill="#000000" d="M 7.953125 25.003906 C 8 25.113281 8.082031 25.199219 8.191406 25.25 C 8.300781 25.296875 8.421875 25.296875 8.535156 25.253906 C 8.644531 25.210938 8.730469 25.125 8.777344 25.015625 C 8.824219 24.90625 8.828125 24.785156 8.785156 24.671875 L 7.988281 22.652344 C 7.898438 22.421875 7.640625 22.3125 7.410156 22.402344 C 7.183594 22.492188 7.070312 22.753906 7.160156 22.984375 L 7.234375 23.175781 C 7.238281 23.175781 7.238281 23.175781 7.238281 23.175781 Z M 7.953125 25.003906 " fill-opacity="1" fill-rule="nonzero"/><g clip-path="url(#f132cbb2fa)"><path fill="#000000" d="M 12.359375 23.722656 C 12.289062 23.320312 11.90625 23.046875 11.503906 23.113281 L 10.113281 23.347656 C 9.96875 23.371094 9.839844 23.453125 9.757812 23.578125 C 9.675781 23.703125 9.648438 23.851562 9.679688 23.996094 C 9.742188 24.273438 10.011719 24.457031 10.292969 24.410156 L 10.824219 24.320312 C 10.976562 24.292969 11.128906 24.332031 11.257812 24.421875 C 11.382812 24.515625 11.464844 24.652344 11.484375 24.804688 L 11.613281 25.6875 C 11.628906 25.808594 11.550781 25.921875 11.433594 25.949219 C 10.449219 26.1875 9.679688 26.75 9.089844 27.667969 C 9.019531 27.773438 8.871094 27.804688 8.765625 27.734375 C 8.65625 27.664062 8.625 27.519531 8.695312 27.410156 C 9.304688 26.464844 10.121094 25.839844 11.117188 25.546875 L 11.023438 24.875 C 11.015625 24.835938 10.992188 24.8125 10.980469 24.804688 C 10.964844 24.792969 10.9375 24.777344 10.898438 24.785156 L 10.609375 24.832031 C 10.53125 25.101562 10.332031 25.328125 10.066406 25.433594 C 9.957031 25.476562 9.84375 25.496094 9.730469 25.496094 C 9.523438 25.496094 9.324219 25.425781 9.160156 25.296875 C 9.058594 25.476562 8.902344 25.613281 8.707031 25.691406 C 8.597656 25.734375 8.484375 25.757812 8.371094 25.757812 C 8.246094 25.757812 8.121094 25.730469 8.007812 25.679688 C 7.945312 25.652344 7.886719 25.621094 7.832031 25.582031 C 7.730469 25.773438 7.566406 25.921875 7.363281 26 C 7.253906 26.046875 7.140625 26.066406 7.03125 26.066406 C 6.664062 26.066406 6.320312 25.847656 6.179688 25.484375 L 6.019531 25.085938 C 6.0625 26.242188 6.152344 27.632812 6.3125 28.023438 C 6.414062 28.269531 6.554688 28.5 6.734375 28.710938 C 7.007812 29.035156 7.15625 29.449219 7.15625 29.875 L 7.15625 32.570312 L 10.921875 32.570312 L 10.921875 29.976562 C 10.921875 29.601562 11.019531 29.230469 11.203125 28.902344 L 12.425781 26.722656 C 12.648438 26.320312 12.730469 25.847656 12.652344 25.394531 Z M 12.359375 23.722656 " fill-opacity="1" fill-rule="nonzero"/></g><path fill="#000000" d="M 9.613281 23.0625 L 9.269531 22.183594 L 9.203125 22.019531 C 9.160156 21.90625 9.074219 21.820312 8.964844 21.773438 C 8.855469 21.722656 8.734375 21.722656 8.625 21.765625 C 8.394531 21.855469 8.28125 22.117188 8.375 22.347656 L 8.425781 22.480469 L 9.21875 24.5 L 9.316406 24.742188 C 9.40625 24.972656 9.667969 25.085938 9.894531 24.992188 C 9.960938 24.96875 10.015625 24.925781 10.0625 24.875 C 9.660156 24.820312 9.316406 24.519531 9.222656 24.101562 C 9.160156 23.828125 9.214844 23.546875 9.371094 23.316406 C 9.4375 23.214844 9.519531 23.128906 9.613281 23.0625 Z M 9.613281 23.0625 " fill-opacity="1" fill-rule="nonzero"/><path fill="#000000" d="M 7.191406 25.5625 C 7.421875 25.472656 7.535156 25.210938 7.441406 24.980469 L 6.800781 23.351562 C 6.710938 23.121094 6.449219 23.007812 6.222656 23.097656 C 6.109375 23.140625 6.023438 23.226562 5.976562 23.335938 C 5.929688 23.445312 5.925781 23.570312 5.972656 23.679688 L 6.613281 25.3125 C 6.703125 25.542969 6.964844 25.65625 7.191406 25.5625 Z M 7.191406 25.5625 " fill-opacity="1" fill-rule="nonzero"/><path fill="#000000" d="M 9.953125 21.429688 C 9.84375 21.472656 9.757812 21.558594 9.710938 21.667969 C 9.664062 21.777344 9.660156 21.898438 9.703125 22.011719 L 10.046875 22.882812 L 10.945312 22.730469 L 10.535156 21.683594 C 10.441406 21.453125 10.183594 21.339844 9.953125 21.429688 Z M 9.953125 21.429688 " fill-opacity="1" fill-rule="nonzero"/><g clip-path="url(#02897b69cc)"><path fill="#000000" d="M 10.644531 17.695312 C 10.695312 17.816406 10.832031 17.871094 10.949219 17.820312 C 11.070312 17.769531 11.125 17.632812 11.074219 17.511719 L 7.628906 9.371094 C 7.59375 9.28125 7.507812 9.226562 7.414062 9.226562 C 7.320312 9.226562 7.234375 9.28125 7.199219 9.371094 L 3.753906 17.511719 C 3.703125 17.632812 3.757812 17.769531 3.878906 17.820312 C 3.910156 17.832031 3.941406 17.839844 3.96875 17.839844 C 4.0625 17.839844 4.148438 17.785156 4.1875 17.695312 L 7.414062 10.0625 Z M 10.644531 17.695312 " fill-opacity="1" fill-rule="nonzero"/></g><g clip-path="url(#0526d894a5)"><path fill="#000000" d="M 33.246094 17.511719 L 29.800781 9.371094 C 29.765625 9.28125 29.679688 9.226562 29.585938 9.226562 C 29.492188 9.226562 29.40625 9.28125 29.371094 9.371094 L 25.925781 17.511719 C 25.875 17.632812 25.929688 17.769531 26.050781 17.820312 C 26.167969 17.871094 26.308594 17.816406 26.359375 17.695312 L 29.585938 10.0625 L 32.816406 17.695312 C 32.851562 17.785156 32.941406 17.839844 33.03125 17.839844 C 33.0625 17.839844 33.09375 17.832031 33.121094 17.820312 C 33.242188 17.769531 33.296875 17.632812 33.246094 17.511719 Z M 33.246094 17.511719 " fill-opacity="1" fill-rule="nonzero"/></g><g clip-path="url(#74276b1ebb)"><g fill="#000000" fill-opacity="1"><g transform="translate(35.359784, 44.259869)"><g><path d="M 3.203125 -0.046875 C 2.859375 0.046875 2.507812 0.09375 2.15625 0.09375 C 1.320312 0.09375 0.90625 -0.378906 0.90625 -1.328125 L 0.90625 -5.5 L 0.171875 -5.5 L 0.171875 -6.25 L 0.9375 -6.25 L 1.25 -7.65625 L 1.9375 -7.65625 L 1.9375 -6.25 L 3.09375 -6.25 L 3.09375 -5.5 L 1.9375 -5.5 L 1.9375 -1.546875 C 1.9375 -1.242188 1.984375 -1.03125 2.078125 -0.90625 C 2.179688 -0.789062 2.359375 -0.734375 2.609375 -0.734375 C 2.742188 -0.734375 2.941406 -0.757812 3.203125 -0.8125 Z M 3.203125 -0.046875 "/></g></g></g></g></svg>