<svg xmlns="http://www.w3.org/2000/svg" xmlns:xlink="http://www.w3.org/1999/xlink" width="50" zoomAndPan="magnify" viewBox="0 0 37.5 37.499999" height="50" preserveAspectRatio="xMidYMid meet" version="1.0"><defs><g/><clipPath id="9fd195b2ce"><path d="M 3.699219 25 L 14 25 L 14 33.304688 L 3.699219 33.304688 Z M 3.699219 25 " clip-rule="nonzero"/></clipPath><clipPath id="f0e444f18b"><path d="M 3.699219 20 L 13 20 L 13 22 L 3.699219 22 Z M 3.699219 20 " clip-rule="nonzero"/></clipPath><clipPath id="4611e3ff9d"><path d="M 18 3.699219 L 20 3.699219 L 20 7 L 18 7 Z M 18 3.699219 " clip-rule="nonzero"/></clipPath><clipPath id="48bc38e69b"><path d="M 23 16 L 33.304688 16 L 33.304688 31 L 23 31 Z M 23 16 " clip-rule="nonzero"/></clipPath><clipPath id="9c35474a83"><path d="M 25 10 L 33.304688 10 L 33.304688 26 L 25 26 Z M 25 10 " clip-rule="nonzero"/></clipPath><clipPath id="48c59781ac"><path d="M 35 36 L 37.007812 36 L 37.007812 37.007812 L 35 37.007812 Z M 35 36 " clip-rule="nonzero"/></clipPath></defs><g clip-path="url(#9fd195b2ce)"><path fill="#000000" d="M 11.628906 33.308594 C 11.320312 33.308594 11.027344 33.242188 10.746094 33.117188 C 9.320312 32.476562 5.269531 29.863281 3.710938 25.554688 L 4.648438 25.210938 C 6.355469 29.933594 11.109375 32.179688 11.15625 32.203125 C 11.585938 32.394531 12.117188 32.300781 12.453125 31.960938 L 13.089844 31.304688 L 13.804688 32.007812 L 13.164062 32.664062 C 12.753906 33.078125 12.207031 33.308594 11.628906 33.308594 Z M 11.628906 33.308594 " fill-opacity="1" fill-rule="nonzero"/></g><path fill="#000000" d="M 14.125 32.304688 C 13.820312 32.304688 13.523438 32.242188 13.246094 32.113281 C 12.855469 31.9375 12.039062 31.574219 11.128906 30.722656 L 11.804688 29.988281 C 12.597656 30.726562 13.308594 31.042969 13.652344 31.199219 C 14.082031 31.390625 14.617188 31.296875 14.953125 30.957031 L 15.605469 30.300781 L 16.308594 31.015625 L 15.65625 31.664062 C 15.25 32.074219 14.703125 32.304688 14.125 32.304688 Z M 14.125 32.304688 " fill-opacity="1" fill-rule="nonzero"/><path fill="#000000" d="M 16.625 31.300781 C 16.316406 31.300781 16.019531 31.238281 15.742188 31.113281 C 15.21875 30.878906 14.191406 30.320312 13.136719 29.21875 L 13.859375 28.523438 C 14.792969 29.503906 15.695312 29.992188 16.148438 30.195312 C 16.300781 30.265625 16.480469 30.304688 16.632812 30.296875 C 17 30.292969 17.3125 29.945312 17.3125 29.535156 L 17.3125 28.765625 L 18.3125 28.765625 L 18.3125 29.535156 C 18.3125 30.5 17.5625 31.289062 16.640625 31.300781 L 16.621094 31.300781 Z M 16.625 31.300781 " fill-opacity="1" fill-rule="nonzero"/><path fill="#000000" d="M 17.5625 29.292969 C 17.328125 29.292969 17.101562 29.246094 16.886719 29.15625 C 15.738281 28.632812 14.800781 28 14.085938 27.261719 L 14.800781 26.5625 C 15.429688 27.207031 16.261719 27.769531 17.285156 28.234375 C 17.363281 28.269531 17.460938 28.289062 17.5625 28.289062 C 17.976562 28.289062 18.3125 27.949219 18.3125 27.535156 C 18.3125 27.441406 18.3125 27.15625 17.820312 26.824219 C 17.765625 26.785156 17.503906 26.605469 17.121094 26.339844 C 16 25.5625 13.667969 23.941406 12.542969 23.1875 L 12.335938 23.046875 L 11.789062 13.738281 L 15.546875 13.738281 L 15.546875 14.742188 L 12.847656 14.742188 L 13.304688 22.492188 C 14.492188 23.292969 16.628906 24.777344 17.6875 25.515625 C 18.066406 25.777344 18.324219 25.953125 18.378906 25.992188 C 19.148438 26.515625 19.308594 27.121094 19.308594 27.535156 C 19.308594 28.503906 18.527344 29.292969 17.5625 29.292969 Z M 17.5625 29.292969 " fill-opacity="1" fill-rule="nonzero"/><path fill="#000000" d="M 17.355469 25.84375 L 16.492188 25.339844 L 22.117188 15.542969 L 16.605469 12.5625 L 13.296875 22.921875 L 12.34375 22.617188 L 16.023438 11.109375 L 23.496094 15.148438 Z M 17.355469 25.84375 " fill-opacity="1" fill-rule="nonzero"/><path fill="#000000" d="M 18.171875 26.636719 L 17.550781 25.851562 L 22.113281 22.183594 L 20.148438 19.589844 L 20.941406 18.980469 L 23.496094 22.355469 Z M 18.171875 26.636719 " fill-opacity="1" fill-rule="nonzero"/><g clip-path="url(#f0e444f18b)"><path fill="#000000" d="M 3.832031 20.261719 L 12.703125 20.261719 L 12.703125 21.265625 L 3.832031 21.265625 Z M 3.832031 20.261719 " fill-opacity="1" fill-rule="nonzero"/></g><path fill="#000000" d="M 16.316406 22.265625 C 15.765625 22.265625 15.316406 21.816406 15.316406 21.265625 C 15.316406 20.710938 15.765625 20.261719 16.316406 20.261719 C 16.863281 20.261719 17.3125 20.710938 17.3125 21.265625 C 17.3125 21.816406 16.863281 22.265625 16.316406 22.265625 Z M 16.316406 21.265625 Z M 16.316406 21.265625 " fill-opacity="1" fill-rule="nonzero"/><path fill="#000000" d="M 10.683594 5.046875 L 11.578125 4.597656 L 12.953125 7.367188 L 12.0625 7.816406 Z M 10.683594 5.046875 " fill-opacity="1" fill-rule="nonzero"/><path fill="#000000" d="M 5.195312 10.402344 L 5.75 9.566406 L 7.957031 11.046875 L 7.402344 11.882812 Z M 5.195312 10.402344 " fill-opacity="1" fill-rule="nonzero"/><g clip-path="url(#4611e3ff9d)"><path fill="#000000" d="M 18.3125 3.703125 L 19.308594 3.703125 L 19.308594 6.710938 L 18.3125 6.710938 Z M 18.3125 3.703125 " fill-opacity="1" fill-rule="nonzero"/></g><g clip-path="url(#48bc38e69b)"><path fill="#000000" d="M 27.9375 30.296875 C 25.65625 30.296875 23.804688 28.433594 23.804688 26.140625 C 23.804688 25.648438 23.90625 25.164062 24.015625 24.648438 C 24.152344 24.023438 24.300781 23.316406 24.300781 22.425781 L 24.300781 18.503906 C 24.300781 17.535156 25.085938 16.75 26.050781 16.75 C 27.011719 16.75 27.796875 17.535156 27.796875 18.503906 L 27.796875 24.273438 L 26.796875 24.273438 L 26.796875 18.503906 C 26.796875 18.089844 26.460938 17.75 26.050781 17.75 C 25.636719 17.75 25.300781 18.089844 25.300781 18.503906 L 25.300781 22.425781 C 25.300781 23.421875 25.136719 24.1875 24.992188 24.859375 C 24.890625 25.339844 24.800781 25.757812 24.800781 26.140625 C 24.800781 27.878906 26.207031 29.292969 27.9375 29.292969 C 29.046875 29.292969 29.496094 29.179688 29.96875 29.058594 C 30.488281 28.925781 31.023438 28.792969 32.289062 28.792969 L 33.289062 28.792969 L 33.289062 29.792969 L 32.289062 29.792969 C 31.148438 29.792969 30.695312 29.910156 30.214844 30.03125 C 29.703125 30.164062 29.171875 30.296875 27.9375 30.296875 Z M 27.9375 30.296875 " fill-opacity="1" fill-rule="nonzero"/></g><g clip-path="url(#9c35474a83)"><path fill="#000000" d="M 33.289062 25.277344 L 30.792969 25.277344 C 30.242188 25.277344 29.792969 24.828125 29.792969 24.273438 L 29.792969 19.558594 C 29.792969 19.066406 29.734375 18.574219 29.613281 18.097656 L 28.023438 11.703125 C 27.953125 11.421875 27.707031 11.230469 27.421875 11.230469 C 27.078125 11.230469 26.796875 11.507812 26.796875 11.855469 L 26.796875 17.273438 L 25.800781 17.273438 L 25.800781 11.855469 C 25.800781 10.957031 26.527344 10.226562 27.421875 10.226562 C 28.164062 10.226562 28.8125 10.730469 28.992188 11.457031 L 30.582031 17.855469 C 30.722656 18.410156 30.792969 18.984375 30.792969 19.558594 L 30.792969 24.273438 L 33.289062 24.273438 Z M 33.289062 25.277344 " fill-opacity="1" fill-rule="nonzero"/></g><path fill="#000000" d="M 18.46875 19.890625 L 17.601562 19.386719 L 19.066406 16.84375 C 18.941406 16.589844 18.863281 16.324219 18.828125 16.042969 L 18.058594 15.628906 C 17.941406 15.667969 17.820312 15.695312 17.695312 15.714844 L 16.679688 18.898438 L 15.726562 18.589844 L 16.957031 14.742188 L 17.320312 14.742188 C 17.519531 14.738281 17.714844 14.699219 17.902344 14.617188 L 18.121094 14.523438 L 19.808594 15.433594 L 19.808594 15.734375 C 19.808594 16.039062 19.890625 16.316406 20.054688 16.570312 L 20.226562 16.828125 Z M 18.46875 19.890625 " fill-opacity="1" fill-rule="nonzero"/><g clip-path="url(#48c59781ac)"><g fill="#000000" fill-opacity="1"><g transform="translate(35.359784, 44.259869)"><g><path d="M 3.203125 -0.046875 C 2.859375 0.046875 2.507812 0.09375 2.15625 0.09375 C 1.320312 0.09375 0.90625 -0.378906 0.90625 -1.328125 L 0.90625 -5.5 L 0.171875 -5.5 L 0.171875 -6.25 L 0.9375 -6.25 L 1.25 -7.65625 L 1.9375 -7.65625 L 1.9375 -6.25 L 3.09375 -6.25 L 3.09375 -5.5 L 1.9375 -5.5 L 1.9375 -1.546875 C 1.9375 -1.242188 1.984375 -1.03125 2.078125 -0.90625 C 2.179688 -0.789062 2.359375 -0.734375 2.609375 -0.734375 C 2.742188 -0.734375 2.941406 -0.757812 3.203125 -0.8125 Z M 3.203125 -0.046875 "/></g></g></g></g></svg>