<svg xmlns="http://www.w3.org/2000/svg" xmlns:xlink="http://www.w3.org/1999/xlink" width="50" zoomAndPan="magnify" viewBox="0 0 37.5 37.499999" height="50" preserveAspectRatio="xMidYMid meet" version="1.0"><defs><g/><clipPath id="9f94f8351a"><path d="M 4 3.699219 L 33 3.699219 L 33 33 L 4 33 Z M 4 3.699219 " clip-rule="nonzero"/></clipPath><clipPath id="50c1ddb50d"><path d="M 35 36 L 37.007812 36 L 37.007812 37.007812 L 35 37.007812 Z M 35 36 " clip-rule="nonzero"/></clipPath></defs><g clip-path="url(#9f94f8351a)"><path fill="#000000" d="M 32.554688 28.71875 C 31.761719 26.34375 31.101562 23.597656 29.777344 21.226562 C 28.453125 18.855469 25.675781 18.386719 25.675781 18.386719 C 28.585938 16.542969 28.347656 14.371094 26.492188 12.417969 C 24.640625 10.464844 24.507812 8.078125 23.320312 6.121094 C 22.128906 4.167969 19.941406 3.84375 18.53125 3.84375 C 17.121094 3.84375 14.933594 4.167969 13.742188 6.121094 C 12.550781 8.074219 12.417969 10.464844 10.566406 12.417969 C 8.714844 14.371094 8.472656 16.542969 11.386719 18.386719 C 11.386719 18.386719 8.605469 18.855469 7.285156 21.226562 C 5.960938 23.597656 5.296875 26.34375 4.503906 28.714844 C 3.710938 31.085938 4.324219 32.0625 6.574219 32.0625 C 7.113281 32.0625 8.085938 32.0625 9.246094 32.0625 C 9.4375 31.660156 9.757812 31.328125 10.171875 31.148438 L 8.851562 22.242188 C 8.773438 21.710938 8.925781 21.175781 9.269531 20.78125 C 9.613281 20.386719 10.121094 20.160156 10.660156 20.160156 L 26.398438 20.160156 C 26.941406 20.160156 27.449219 20.386719 27.792969 20.78125 C 28.136719 21.175781 28.289062 21.710938 28.210938 22.242188 L 26.890625 31.148438 C 27.304688 31.328125 27.625 31.660156 27.816406 32.0625 C 28.980469 32.0625 29.949219 32.0625 30.488281 32.0625 C 32.738281 32.0625 33.351562 31.085938 32.554688 28.71875 Z M 22.996094 12.355469 C 22.894531 13.382812 22.640625 15.050781 22.074219 16.253906 C 21.207031 18.105469 19.339844 18.929688 18.53125 18.929688 C 17.722656 18.929688 15.855469 18.105469 14.984375 16.253906 C 14.421875 15.050781 14.167969 13.378906 14.0625 12.355469 C 13.277344 12.878906 12.519531 13.574219 12.519531 13.574219 C 12.957031 12.582031 13.988281 11.433594 13.988281 11.433594 C 15.355469 9.210938 18.53125 8.21875 18.53125 8.21875 C 18.53125 8.21875 21.703125 9.210938 23.074219 11.433594 C 23.074219 11.433594 24.105469 12.582031 24.542969 13.574219 C 24.539062 13.574219 23.78125 12.878906 22.996094 12.355469 Z M 22.996094 12.355469 " fill-opacity="1" fill-rule="nonzero"/></g><path fill="#000000" d="M 17.535156 28.25 C 17.367188 28.859375 18.050781 28.832031 18.050781 28.703125 C 18.050781 28.386719 18.273438 27.6875 18.273438 27.6875 C 18.273438 27.6875 17.675781 27.734375 17.535156 28.25 Z M 17.535156 28.25 " fill-opacity="1" fill-rule="nonzero"/><path fill="#000000" d="M 19.523438 28.25 C 19.386719 27.734375 18.789062 27.6875 18.789062 27.6875 C 18.789062 27.6875 19.011719 28.386719 19.011719 28.703125 C 19.011719 28.832031 19.691406 28.859375 19.523438 28.25 Z M 19.523438 28.25 " fill-opacity="1" fill-rule="nonzero"/><path fill="#000000" d="M 20.054688 27.003906 C 21.042969 26.78125 20.777344 25.503906 20.511719 25.664062 C 19.714844 26.140625 18.816406 26.300781 18.816406 26.300781 C 18.988281 26.738281 19.210938 27.1875 20.054688 27.003906 Z M 20.054688 27.003906 " fill-opacity="1" fill-rule="nonzero"/><path fill="#000000" d="M 17.007812 27.003906 C 17.851562 27.1875 18.070312 26.738281 18.246094 26.300781 C 18.246094 26.300781 17.347656 26.140625 16.550781 25.664062 C 16.285156 25.507812 16.019531 26.78125 17.007812 27.003906 Z M 17.007812 27.003906 " fill-opacity="1" fill-rule="nonzero"/><path fill="#000000" d="M 26.152344 32.0625 L 25.671875 32.0625 L 27.148438 22.085938 C 27.21875 21.613281 26.878906 21.226562 26.398438 21.226562 L 19.40625 21.226562 C 18.925781 21.226562 18.136719 21.226562 17.65625 21.226562 L 10.660156 21.226562 C 10.179688 21.226562 9.84375 21.613281 9.914062 22.085938 L 11.390625 32.0625 L 10.90625 32.0625 C 10.476562 32.0625 10.121094 32.414062 10.121094 32.84375 L 10.121094 33.125 C 10.121094 33.554688 10.476562 33.902344 10.90625 33.902344 L 26.152344 33.902344 C 26.585938 33.902344 26.9375 33.554688 26.9375 33.125 L 26.9375 32.84375 C 26.9375 32.414062 26.585938 32.0625 26.152344 32.0625 Z M 18.53125 22.890625 C 19.703125 22.890625 21.679688 23.5625 21.679688 25.523438 C 21.679688 27.484375 21.246094 27.539062 21 28.101562 C 21 28.101562 21.554688 28.65625 21.371094 29.054688 C 21.183594 29.449219 20.199219 29.054688 20.105469 29.671875 C 20.011719 30.289062 19.886719 30.402344 18.53125 30.402344 C 17.171875 30.402344 17.050781 30.289062 16.957031 29.671875 C 16.863281 29.054688 15.878906 29.449219 15.691406 29.054688 C 15.507812 28.65625 16.0625 28.101562 16.0625 28.101562 C 15.816406 27.539062 15.382812 27.484375 15.382812 25.523438 C 15.382812 23.5625 17.359375 22.890625 18.53125 22.890625 Z M 23.398438 32.386719 L 13.664062 32.386719 C 13.511719 32.386719 13.386719 32.265625 13.386719 32.113281 C 13.386719 31.964844 13.511719 31.839844 13.664062 31.839844 L 23.398438 31.839844 C 23.550781 31.839844 23.675781 31.964844 23.675781 32.113281 C 23.675781 32.265625 23.550781 32.386719 23.398438 32.386719 Z M 23.398438 32.386719 " fill-opacity="1" fill-rule="nonzero"/><g clip-path="url(#50c1ddb50d)"><g fill="#000000" fill-opacity="1"><g transform="translate(35.359784, 44.259869)"><g><path d="M 3.203125 -0.046875 C 2.859375 0.046875 2.507812 0.09375 2.15625 0.09375 C 1.320312 0.09375 0.90625 -0.378906 0.90625 -1.328125 L 0.90625 -5.5 L 0.171875 -5.5 L 0.171875 -6.25 L 0.9375 -6.25 L 1.25 -7.65625 L 1.9375 -7.65625 L 1.9375 -6.25 L 3.09375 -6.25 L 3.09375 -5.5 L 1.9375 -5.5 L 1.9375 -1.546875 C 1.9375 -1.242188 1.984375 -1.03125 2.078125 -0.90625 C 2.179688 -0.789062 2.359375 -0.734375 2.609375 -0.734375 C 2.742188 -0.734375 2.941406 -0.757812 3.203125 -0.8125 Z M 3.203125 -0.046875 "/></g></g></g></g></svg>