<svg xmlns="http://www.w3.org/2000/svg" xmlns:xlink="http://www.w3.org/1999/xlink" width="50" zoomAndPan="magnify" viewBox="0 0 37.5 37.499999" height="50" preserveAspectRatio="xMidYMid meet" version="1.0"><defs><g/><clipPath id="e3ac55a24b"><path d="M 8 6.671875 L 30 6.671875 L 30 25 L 8 25 Z M 8 6.671875 " clip-rule="nonzero"/></clipPath><clipPath id="22c106d4fc"><path d="M 3.730469 23.277344 L 35.492188 23.277344 L 35.492188 30.355469 L 3.730469 30.355469 Z M 3.730469 23.277344 " clip-rule="nonzero"/></clipPath><clipPath id="4c2aed096c"><path d="M 35 36 L 37.007812 36 L 37.007812 37.007812 L 35 37.007812 Z M 35 36 " clip-rule="nonzero"/></clipPath></defs><g clip-path="url(#e3ac55a24b)"><path fill="#100f0d" d="M 23.046875 19.898438 C 22.957031 19.816406 22.832031 19.785156 22.714844 19.808594 L 22.070312 19.921875 C 21.949219 19.941406 21.835938 19.859375 21.8125 19.742188 L 21.699219 19.085938 C 21.667969 18.90625 21.511719 18.773438 21.320312 18.78125 C 21.199219 18.78125 21.089844 18.851562 21.019531 18.949219 L 20.582031 19.570312 C 20.496094 19.695312 20.367188 19.777344 20.222656 19.800781 C 20.21875 19.804688 20.214844 19.804688 20.207031 19.804688 C 20.066406 19.828125 19.925781 19.796875 19.804688 19.71875 C 19.683594 19.640625 19.601562 19.515625 19.570312 19.363281 C 19.539062 19.199219 19.578125 19.023438 19.671875 18.886719 L 20.207031 18.128906 C 20.3125 17.980469 20.273438 17.777344 20.128906 17.675781 L 19.859375 17.488281 C 19.746094 17.40625 19.597656 17.410156 19.476562 17.488281 C 19.328125 17.59375 19.160156 17.664062 18.980469 17.695312 C 18.972656 17.695312 18.964844 17.699219 18.957031 17.699219 C 18.621094 17.757812 18.28125 17.683594 18 17.484375 C 17.714844 17.285156 17.523438 16.992188 17.46875 16.652344 C 17.433594 16.46875 17.441406 16.28125 17.488281 16.101562 C 17.527344 15.964844 17.476562 15.824219 17.363281 15.746094 L 17.09375 15.558594 C 16.945312 15.453125 16.742188 15.492188 16.636719 15.636719 L 16.082031 16.429688 C 15.992188 16.554688 15.859375 16.640625 15.714844 16.660156 C 15.566406 16.6875 15.425781 16.660156 15.300781 16.578125 C 15.179688 16.5 15.097656 16.371094 15.070312 16.222656 C 15.039062 16.054688 15.074219 15.878906 15.171875 15.742188 L 15.59375 15.144531 C 15.695312 14.996094 15.679688 14.792969 15.542969 14.660156 C 15.453125 14.578125 15.328125 14.550781 15.210938 14.570312 L 14.566406 14.683594 C 14.445312 14.703125 14.332031 14.625 14.308594 14.503906 L 14.195312 13.847656 C 14.164062 13.671875 14.007812 13.539062 13.816406 13.542969 C 13.695312 13.546875 13.585938 13.613281 13.515625 13.710938 L 13.082031 14.332031 C 12.992188 14.457031 12.863281 14.539062 12.710938 14.566406 C 12.5625 14.59375 12.414062 14.5625 12.289062 14.476562 C 12.171875 14.394531 12.09375 14.269531 12.066406 14.121094 C 12.035156 13.953125 12.074219 13.78125 12.167969 13.648438 L 13.898438 11.191406 C 13.988281 11.066406 14.109375 10.984375 14.265625 10.957031 C 14.417969 10.933594 14.566406 10.964844 14.691406 11.050781 C 14.808594 11.128906 14.886719 11.253906 14.914062 11.40625 C 14.941406 11.570312 14.90625 11.742188 14.8125 11.875 L 14.386719 12.476562 C 14.285156 12.625 14.300781 12.828125 14.4375 12.957031 C 14.523438 13.039062 14.652344 13.070312 14.769531 13.050781 L 15.414062 12.9375 C 15.535156 12.914062 15.648438 12.996094 15.671875 13.113281 L 15.785156 13.769531 C 15.816406 13.949219 15.972656 14.082031 16.164062 14.074219 C 16.285156 14.074219 16.394531 14.003906 16.460938 13.90625 L 16.882812 13.3125 C 16.96875 13.1875 17.085938 13.101562 17.210938 13.066406 C 17.394531 13.015625 17.582031 13.054688 17.730469 13.171875 C 17.949219 13.347656 17.988281 13.71875 17.816406 13.964844 L 17.277344 14.730469 C 17.226562 14.800781 17.207031 14.886719 17.222656 14.972656 C 17.238281 15.058594 17.285156 15.132812 17.359375 15.183594 L 17.625 15.371094 C 17.738281 15.449219 17.886719 15.449219 18.003906 15.371094 C 18.136719 15.28125 18.28125 15.199219 18.441406 15.171875 L 18.527344 15.15625 C 18.863281 15.097656 19.203125 15.175781 19.484375 15.371094 C 19.925781 15.679688 20.128906 16.234375 19.992188 16.757812 C 19.957031 16.894531 20.007812 17.03125 20.121094 17.109375 L 20.390625 17.300781 C 20.539062 17.402344 20.742188 17.367188 20.847656 17.21875 L 21.402344 16.429688 C 21.492188 16.304688 21.621094 16.222656 21.769531 16.195312 C 21.917969 16.164062 22.074219 16.203125 22.199219 16.289062 C 22.285156 16.347656 22.394531 16.460938 22.425781 16.660156 C 22.453125 16.808594 22.410156 16.976562 22.3125 17.117188 L 21.890625 17.714844 C 21.785156 17.859375 21.804688 18.0625 21.941406 18.195312 C 22.027344 18.277344 22.15625 18.304688 22.273438 18.285156 L 22.917969 18.171875 C 23.039062 18.152344 23.152344 18.234375 23.175781 18.351562 L 23.289062 19.007812 C 23.320312 19.183594 23.476562 19.316406 23.667969 19.3125 C 23.789062 19.308594 23.898438 19.242188 23.96875 19.144531 L 24.386719 18.546875 C 24.472656 18.425781 24.589844 18.335938 24.714844 18.304688 C 24.734375 18.296875 24.753906 18.292969 24.773438 18.289062 C 24.9375 18.261719 25.105469 18.304688 25.234375 18.410156 C 25.453125 18.585938 25.492188 18.957031 25.316406 19.203125 L 23.585938 21.664062 C 23.5 21.789062 23.367188 21.871094 23.214844 21.898438 C 23.066406 21.925781 22.917969 21.894531 22.792969 21.808594 C 22.675781 21.726562 22.597656 21.601562 22.570312 21.449219 C 22.542969 21.285156 22.578125 21.113281 22.671875 20.980469 L 23.097656 20.378906 C 23.199219 20.234375 23.183594 20.027344 23.046875 19.898438 Z M 22.066406 22.492188 C 23.5625 22.601562 24.964844 23.148438 26.0625 24.003906 L 28.878906 20 C 28.976562 19.867188 29.011719 19.703125 28.984375 19.539062 C 28.953125 19.375 28.863281 19.234375 28.726562 19.140625 L 28.125 18.71875 C 28.042969 18.664062 27.992188 18.582031 27.976562 18.488281 C 27.960938 18.394531 27.980469 18.296875 28.035156 18.21875 L 28.097656 18.132812 C 28.191406 18 28.390625 17.964844 28.527344 18.058594 C 28.707031 18.183594 28.972656 18.136719 29.097656 17.957031 L 29.320312 17.640625 C 29.453125 17.457031 29.40625 17.203125 29.222656 17.070312 L 14.519531 6.8125 C 14.335938 6.683594 14.078125 6.726562 13.945312 6.910156 L 13.726562 7.226562 C 13.59375 7.414062 13.640625 7.667969 13.824219 7.796875 C 13.988281 7.910156 14.027344 8.132812 13.914062 8.296875 L 13.878906 8.339844 C 13.765625 8.503906 13.542969 8.542969 13.382812 8.429688 L 12.777344 8.007812 C 12.640625 7.914062 12.476562 7.878906 12.316406 7.90625 C 12.3125 7.90625 12.3125 7.90625 12.3125 7.90625 C 12.152344 7.933594 12.007812 8.023438 11.914062 8.160156 L 8.605469 12.855469 C 8.511719 12.992188 8.472656 13.15625 8.503906 13.316406 C 8.53125 13.480469 8.621094 13.621094 8.757812 13.71875 L 9.359375 14.136719 C 9.523438 14.25 9.5625 14.472656 9.449219 14.636719 L 9.414062 14.683594 C 9.300781 14.84375 9.078125 14.882812 8.917969 14.769531 C 8.730469 14.640625 8.472656 14.683594 8.34375 14.871094 L 8.121094 15.1875 C 7.988281 15.371094 8.035156 15.628906 8.222656 15.757812 L 18.515625 22.941406 C 19.574219 22.601562 20.78125 22.394531 22.066406 22.492188 " fill-opacity="1" fill-rule="nonzero"/></g><g clip-path="url(#22c106d4fc)"><path fill="#100f0d" d="M 5.007812 29.871094 C 5.441406 29.835938 6.058594 29.894531 6.480469 29.671875 C 7.082031 29.355469 7.316406 28.964844 7.648438 28.546875 C 8.03125 28.066406 8.363281 27.652344 8.992188 27.476562 C 9.085938 27.449219 9.210938 27.421875 9.34375 27.394531 C 9.613281 27.335938 9.890625 27.273438 10.101562 27.1875 C 10.511719 27.015625 10.753906 26.671875 10.949219 26.394531 C 11.003906 26.320312 11.058594 26.242188 11.113281 26.175781 C 11.949219 25.121094 13.6875 25.207031 14.644531 25.351562 L 14.683594 25.359375 C 14.949219 25.398438 15.246094 25.441406 15.5625 25.378906 C 15.878906 25.3125 16.132812 25.160156 16.355469 25.019531 L 16.390625 25 C 17.691406 24.207031 19.714844 23.296875 21.992188 23.472656 C 24.023438 23.625 25.84375 24.683594 26.746094 26.242188 L 26.769531 26.277344 C 26.886719 26.480469 27.03125 26.734375 27.3125 26.894531 C 27.679688 27.109375 28.078125 27.050781 28.371094 27.007812 L 28.460938 26.992188 C 29.621094 26.835938 30.859375 27.414062 31.476562 28.410156 L 31.519531 28.476562 C 31.65625 28.703125 31.84375 29.011719 32.203125 29.160156 C 32.503906 29.285156 32.808594 29.242188 33.027344 29.207031 L 33.089844 29.199219 C 33.914062 29.082031 34.914062 29.453125 35.492188 30.355469 L 3.730469 30.355469 C 4.203125 29.976562 4.5625 29.90625 5.007812 29.871094 " fill-opacity="1" fill-rule="nonzero"/></g><g clip-path="url(#4c2aed096c)"><g fill="#000000" fill-opacity="1"><g transform="translate(35.359784, 44.259869)"><g><path d="M 3.203125 -0.046875 C 2.859375 0.046875 2.507812 0.09375 2.15625 0.09375 C 1.320312 0.09375 0.90625 -0.378906 0.90625 -1.328125 L 0.90625 -5.5 L 0.171875 -5.5 L 0.171875 -6.25 L 0.9375 -6.25 L 1.25 -7.65625 L 1.9375 -7.65625 L 1.9375 -6.25 L 3.09375 -6.25 L 3.09375 -5.5 L 1.9375 -5.5 L 1.9375 -1.546875 C 1.9375 -1.242188 1.984375 -1.03125 2.078125 -0.90625 C 2.179688 -0.789062 2.359375 -0.734375 2.609375 -0.734375 C 2.742188 -0.734375 2.941406 -0.757812 3.203125 -0.8125 Z M 3.203125 -0.046875 "/></g></g></g></g></svg>