<svg xmlns="http://www.w3.org/2000/svg" xmlns:xlink="http://www.w3.org/1999/xlink" width="50" zoomAndPan="magnify" viewBox="0 0 37.5 37.499999" height="50" preserveAspectRatio="xMidYMid meet" version="1.0"><defs><clipPath id="c6d3886f62"><path d="M 27 23 L 32 23 L 32 28.355469 L 27 28.355469 Z M 27 23 " clip-rule="nonzero"/></clipPath><clipPath id="867d164c32"><path d="M 10 23 L 16 23 L 16 28.355469 L 10 28.355469 Z M 10 23 " clip-rule="nonzero"/></clipPath><clipPath id="7a85e313d8"><path d="M 4 23 L 10 23 L 10 28.355469 L 4 28.355469 Z M 4 23 " clip-rule="nonzero"/></clipPath><clipPath id="d09929e643"><path d="M 0 8.371094 L 37 8.371094 L 37 26 L 0 26 Z M 0 8.371094 " clip-rule="nonzero"/></clipPath></defs><g clip-path="url(#c6d3886f62)"><path fill="#000000" d="M 29.609375 23.640625 C 28.289062 23.640625 27.21875 24.695312 27.21875 25.996094 C 27.21875 27.300781 28.289062 28.355469 29.609375 28.355469 C 30.929688 28.355469 32 27.300781 32 25.996094 C 32 24.695312 30.929688 23.640625 29.609375 23.640625 Z M 30.972656 25.996094 C 30.972656 26.738281 30.363281 27.339844 29.609375 27.339844 C 28.859375 27.339844 28.25 26.738281 28.25 25.996094 C 28.25 25.257812 28.859375 24.652344 29.609375 24.652344 C 30.363281 24.652344 30.972656 25.257812 30.972656 25.996094 Z M 30.972656 25.996094 " fill-opacity="1" fill-rule="nonzero"/></g><g clip-path="url(#867d164c32)"><path fill="#000000" d="M 13.191406 23.640625 C 11.871094 23.640625 10.800781 24.695312 10.800781 25.996094 C 10.800781 27.300781 11.871094 28.355469 13.191406 28.355469 C 14.511719 28.355469 15.582031 27.300781 15.582031 25.996094 C 15.582031 24.695312 14.511719 23.640625 13.191406 23.640625 Z M 14.554688 25.996094 C 14.554688 26.738281 13.945312 27.339844 13.191406 27.339844 C 12.441406 27.339844 11.828125 26.738281 11.828125 25.996094 C 11.828125 25.257812 12.441406 24.652344 13.191406 24.652344 C 13.945312 24.652344 14.554688 25.257812 14.554688 25.996094 Z M 14.554688 25.996094 " fill-opacity="1" fill-rule="nonzero"/></g><g clip-path="url(#7a85e313d8)"><path fill="#000000" d="M 6.761719 23.640625 C 5.441406 23.640625 4.371094 24.695312 4.371094 25.996094 C 4.371094 27.300781 5.441406 28.355469 6.761719 28.355469 C 8.082031 28.355469 9.152344 27.300781 9.152344 25.996094 C 9.152344 24.695312 8.082031 23.640625 6.761719 23.640625 Z M 8.125 25.996094 C 8.125 26.738281 7.511719 27.339844 6.761719 27.339844 C 6.011719 27.339844 5.398438 26.738281 5.398438 25.996094 C 5.398438 25.257812 6.011719 24.652344 6.761719 24.652344 C 7.511719 24.652344 8.125 25.257812 8.125 25.996094 Z M 8.125 25.996094 " fill-opacity="1" fill-rule="nonzero"/></g><path fill="#000000" d="M 34.890625 22.605469 L 34.675781 22.605469 L 34.675781 19.5 C 34.675781 19.140625 34.535156 18.582031 34.363281 18.261719 L 32.5625 14.890625 C 32.390625 14.570312 31.949219 14.308594 31.582031 14.308594 L 31.152344 14.308594 L 31.152344 13.378906 L 28.660156 13.378906 L 28.660156 14.308594 L 24.214844 14.308594 C 23.847656 14.308594 23.550781 14.605469 23.550781 14.96875 L 23.550781 25.335938 C 23.550781 25.695312 23.847656 25.992188 24.214844 25.992188 L 26.707031 25.992188 C 26.710938 24.414062 28.011719 23.132812 29.609375 23.132812 C 31.210938 23.132812 32.511719 24.414062 32.515625 25.992188 L 34.007812 25.992188 C 34.375 25.992188 34.675781 25.695312 34.675781 25.335938 L 34.675781 25.109375 L 34.890625 25.109375 C 35.253906 25.109375 35.546875 24.820312 35.546875 24.460938 L 35.546875 23.253906 C 35.546875 22.898438 35.253906 22.605469 34.890625 22.605469 Z M 29.3125 14.96875 L 29.3125 18.105469 L 24.214844 18.105469 L 24.214844 14.96875 Z M 28.730469 19.015625 L 27.085938 19.015625 L 27.085938 18.664062 L 28.730469 18.664062 Z M 29.800781 18.105469 L 29.800781 14.96875 L 31.582031 14.96875 C 31.703125 14.96875 31.914062 15.09375 31.972656 15.199219 L 33.527344 18.105469 Z M 29.800781 18.105469 " fill-opacity="1" fill-rule="nonzero"/><g clip-path="url(#d09929e643)"><path fill="#000000" d="M 31.394531 9.414062 L 6.195312 11.976562 L 5.988281 11.996094 L 5.988281 12.992188 L 5.117188 13.070312 L 5.117188 11.234375 L 5.425781 11.234375 L 5.425781 10.753906 L 5.117188 10.753906 L 5.117188 10.605469 L 4.628906 10.605469 L 4.628906 10.753906 L 1.089844 10.753906 L 1.089844 10.605469 L 0.601562 10.605469 L 0.601562 10.753906 L 0.355469 10.753906 L 0.355469 11.234375 L 0.601562 11.234375 L 0.601562 13.253906 L 0.355469 13.253906 L 0.355469 13.734375 L 0.601562 13.734375 L 0.601562 14.878906 L 0.476562 14.878906 C 0.230469 14.878906 0.03125 15.078125 0.03125 15.320312 L 0.03125 19.277344 L 15.5 19.277344 L 15.5 16.113281 L 15.957031 16.113281 L 15.957031 22.890625 L 15.5 22.890625 L 15.5 19.726562 L 0.03125 19.726562 L 0.03125 25.554688 C 0.03125 25.796875 0.230469 25.992188 0.476562 25.992188 L 3.855469 25.992188 C 3.859375 24.414062 5.160156 23.132812 6.761719 23.132812 C 8.363281 23.132812 9.664062 24.414062 9.667969 25.992188 L 10.289062 25.992188 C 10.289062 24.414062 11.59375 23.132812 13.191406 23.132812 C 14.792969 23.132812 16.09375 24.414062 16.097656 25.992188 L 22.210938 25.992188 C 22.457031 25.992188 22.652344 25.796875 22.652344 25.554688 L 22.652344 15.320312 C 22.652344 15.078125 22.457031 14.878906 22.210938 14.878906 L 10.558594 14.878906 L 10.558594 14.515625 L 31.433594 12.578125 L 36.972656 12.578125 L 36.972656 8.371094 L 31.394531 8.371094 Z M 17.207031 22.65625 L 17.207031 21.960938 L 21.359375 21.960938 L 21.359375 22.65625 Z M 21.359375 19.953125 L 21.359375 20.683594 L 17.207031 20.683594 L 17.207031 19.953125 Z M 17.207031 19.679688 L 17.207031 18.949219 L 21.359375 18.949219 L 21.359375 19.679688 Z M 21.359375 20.957031 L 21.359375 21.6875 L 17.207031 21.6875 L 17.207031 20.957031 Z M 21.359375 17.980469 L 21.359375 18.675781 L 17.207031 18.675781 L 17.207031 17.980469 Z M 6.445312 12.402344 L 31.394531 9.867188 L 31.394531 10.628906 L 6.445312 12.949219 Z M 1.089844 11.234375 L 4.628906 11.234375 L 4.628906 13.253906 L 1.089844 13.253906 Z M 1.089844 13.734375 L 4.628906 13.734375 L 4.628906 14.878906 L 1.089844 14.878906 Z M 9.773438 14.867188 C 9.773438 15.542969 9.214844 16.09375 8.527344 16.09375 C 7.839844 16.09375 7.28125 15.542969 7.28125 14.867188 C 7.28125 14.1875 7.839844 13.636719 8.527344 13.636719 C 9.214844 13.636719 9.773438 14.1875 9.773438 14.867188 Z M 9.773438 14.867188 " fill-opacity="1" fill-rule="nonzero"/></g><path fill="#000000" d="M 9.183594 14.867188 C 9.183594 15.042969 9.117188 15.195312 8.988281 15.324219 C 8.863281 15.449219 8.707031 15.511719 8.527344 15.511719 C 8.34375 15.511719 8.191406 15.449219 8.0625 15.324219 C 7.933594 15.195312 7.871094 15.042969 7.871094 14.867188 C 7.871094 14.6875 7.933594 14.535156 8.0625 14.410156 C 8.191406 14.28125 8.34375 14.21875 8.527344 14.21875 C 8.707031 14.21875 8.863281 14.28125 8.988281 14.410156 C 9.117188 14.535156 9.183594 14.6875 9.183594 14.867188 Z M 9.183594 14.867188 " fill-opacity="1" fill-rule="nonzero"/><path fill="#000000" d="M 26.011719 16.285156 L 26.121094 16.175781 L 27.140625 17.179688 L 27.027344 17.289062 Z M 26.011719 16.285156 " fill-opacity="1" fill-rule="nonzero"/><path fill="#000000" d="M 26.507812 15.792969 L 26.621094 15.683594 L 27.636719 16.6875 L 27.527344 16.796875 Z M 26.507812 15.792969 " fill-opacity="1" fill-rule="nonzero"/><path fill="#000000" d="M 25.710938 15.5 L 25.824219 15.390625 L 27.933594 17.472656 L 27.824219 17.582031 Z M 25.710938 15.5 " fill-opacity="1" fill-rule="nonzero"/><path fill="#000000" d="M 30.46875 16.464844 L 30.582031 16.355469 L 31.601562 17.359375 L 31.488281 17.46875 Z M 30.46875 16.464844 " fill-opacity="1" fill-rule="nonzero"/><path fill="#000000" d="M 30.96875 15.972656 L 31.082031 15.863281 L 32.097656 16.867188 L 31.984375 16.976562 Z M 30.96875 15.972656 " fill-opacity="1" fill-rule="nonzero"/><path fill="#000000" d="M 30.171875 15.679688 L 30.285156 15.570312 L 32.394531 17.652344 L 32.28125 17.761719 Z M 30.171875 15.679688 " fill-opacity="1" fill-rule="nonzero"/></svg>