<svg xmlns="http://www.w3.org/2000/svg" xmlns:xlink="http://www.w3.org/1999/xlink" width="50" zoomAndPan="magnify" viewBox="0 0 37.5 37.499999" height="50" preserveAspectRatio="xMidYMid meet" version="1.0"><defs><clipPath id="6c6dbb57ef"><path d="M 2.152344 0 L 34.71875 0 L 34.71875 37.007812 L 2.152344 37.007812 Z M 2.152344 0 " clip-rule="nonzero"/></clipPath></defs><g clip-path="url(#6c6dbb57ef)"><path fill="#000000" d="M 17.394531 6.402344 C 19.417969 7.695312 20.828125 9.851562 21.074219 12.316406 C 21.871094 12.683594 22.789062 12.929688 23.773438 12.929688 C 27.328125 12.929688 30.210938 10.035156 30.210938 6.464844 C 30.210938 2.894531 27.328125 0 23.773438 0 C 20.277344 0.0625 17.394531 2.894531 17.394531 6.402344 Z M 13.160156 19.582031 C 16.71875 19.582031 19.601562 16.6875 19.601562 13.117188 C 19.601562 9.542969 16.71875 6.648438 13.160156 6.648438 C 9.605469 6.648438 6.722656 9.542969 6.722656 13.117188 C 6.722656 16.6875 9.605469 19.582031 13.160156 19.582031 Z M 15.859375 20.011719 L 10.402344 20.011719 C 5.863281 20.011719 2.183594 23.707031 2.183594 28.261719 L 2.183594 35.097656 L 2.613281 35.222656 C 6.90625 36.574219 10.707031 37.007812 13.773438 37.007812 C 19.785156 37.007812 23.28125 35.28125 23.527344 35.160156 L 23.957031 34.914062 L 24.015625 34.914062 L 24.015625 28.261719 C 24.078125 23.707031 20.398438 20.011719 15.859375 20.011719 Z M 26.472656 13.363281 L 21.074219 13.363281 C 21.011719 15.515625 20.09375 17.488281 18.621094 18.902344 C 22.667969 20.136719 25.613281 23.828125 25.613281 28.261719 L 25.613281 30.292969 C 30.949219 30.109375 34.015625 28.570312 34.199219 28.507812 L 34.628906 28.261719 L 34.691406 28.261719 L 34.691406 21.613281 C 34.691406 17.054688 31.007812 13.363281 26.472656 13.363281 Z M 26.472656 13.363281 " fill-opacity="1" fill-rule="nonzero"/></g></svg>