<svg xmlns="http://www.w3.org/2000/svg" xmlns:xlink="http://www.w3.org/1999/xlink" width="50" zoomAndPan="magnify" viewBox="0 0 37.5 37.499999" height="50" preserveAspectRatio="xMidYMid meet" version="1.0"><defs><clipPath id="162afcc7dd"><path d="M 4.441406 21 L 19 21 L 19 37 L 4.441406 37 Z M 4.441406 21 " clip-rule="nonzero"/></clipPath><clipPath id="b3322657af"><path d="M 18 21 L 32.566406 21 L 32.566406 37 L 18 37 Z M 18 21 " clip-rule="nonzero"/></clipPath></defs><path fill="#000000" d="M 18.496094 5.417969 C 21.078125 5.417969 23.15625 6.03125 24.234375 7.085938 L 24.003906 7.347656 C 23.996094 7.355469 23.957031 7.390625 23.890625 7.445312 C 23.269531 6.84375 21.777344 5.914062 18.496094 5.914062 C 15.1875 5.914062 13.695312 6.863281 13.085938 7.464844 C 12.996094 7.394531 12.953125 7.347656 12.949219 7.347656 L 12.734375 7.113281 C 13.800781 6.042969 15.894531 5.417969 18.496094 5.417969 Z M 12.582031 7.679688 C 12.582031 7.679688 13.917969 9.203125 18.476562 9.210938 C 18.742188 9.210938 18.996094 9.203125 19.242188 9.191406 C 19.320312 9.1875 19.390625 9.183594 19.46875 9.179688 C 19.632812 9.171875 19.792969 9.160156 19.949219 9.148438 C 20.027344 9.140625 20.105469 9.132812 20.179688 9.125 C 20.324219 9.113281 20.464844 9.097656 20.601562 9.078125 C 20.671875 9.070312 20.742188 9.0625 20.808594 9.050781 C 20.949219 9.03125 21.082031 9.007812 21.210938 8.984375 C 21.265625 8.976562 21.316406 8.96875 21.367188 8.957031 C 21.527344 8.925781 21.679688 8.894531 21.824219 8.859375 C 21.839844 8.855469 21.855469 8.855469 21.871094 8.851562 C 22.039062 8.808594 22.195312 8.765625 22.34375 8.722656 C 22.347656 8.722656 22.347656 8.722656 22.351562 8.71875 C 22.492188 8.679688 22.621094 8.636719 22.742188 8.59375 C 22.769531 8.582031 22.792969 8.574219 22.820312 8.5625 C 22.917969 8.527344 23.011719 8.492188 23.097656 8.457031 C 23.125 8.445312 23.152344 8.433594 23.175781 8.421875 C 23.257812 8.386719 23.332031 8.351562 23.402344 8.316406 C 23.425781 8.308594 23.449219 8.296875 23.472656 8.285156 C 23.546875 8.25 23.613281 8.214844 23.675781 8.179688 C 23.691406 8.171875 23.707031 8.164062 23.71875 8.15625 C 23.863281 8.070312 23.984375 7.996094 24.078125 7.925781 C 24.101562 7.90625 24.125 7.890625 24.148438 7.875 C 24.164062 7.863281 24.179688 7.851562 24.191406 7.839844 C 24.21875 7.816406 24.242188 7.796875 24.265625 7.78125 C 24.265625 7.777344 24.265625 7.777344 24.265625 7.777344 C 24.335938 7.714844 24.371094 7.679688 24.371094 7.679688 L 24.378906 7.703125 L 24.664062 8.742188 C 24.664062 8.742188 22.289062 11.269531 18.496094 11.269531 L 18.457031 11.269531 C 14.664062 11.269531 12.289062 8.742188 12.289062 8.742188 Z M 11.570312 8.878906 C 11.25 8.980469 10.972656 9.402344 11.160156 10.695312 C 11.53125 13.25 11.941406 14.25 12.398438 14.25 L 12.394531 14.226562 C 12.800781 15.832031 13.53125 17.292969 14.570312 18.34375 C 14.574219 18.351562 14.582031 18.355469 14.585938 18.363281 C 15.019531 18.796875 15.503906 19.15625 16.039062 19.429688 C 16.753906 19.796875 17.558594 20.007812 18.457031 20.007812 C 19.488281 20.007812 20.398438 19.734375 21.191406 19.257812 C 21.191406 19.257812 21.191406 19.257812 21.195312 19.253906 C 21.5 19.074219 21.785156 18.859375 22.050781 18.625 C 22.050781 18.625 22.050781 18.621094 22.050781 18.621094 C 23.246094 17.558594 24.074219 15.976562 24.519531 14.226562 L 24.515625 14.25 C 24.96875 14.25 25.378906 13.25 25.753906 10.695312 C 25.929688 9.472656 25.691406 9.03125 25.394531 8.902344 C 26.292969 6.898438 28.082031 5.230469 28.082031 5.230469 C 26.910156 3.015625 23.484375 0.03125 18.476562 0.0078125 C 18.46875 0.0078125 18.460938 0.0078125 18.449219 0.0078125 C 18.441406 0.0078125 18.433594 0.0078125 18.421875 0.0078125 C 13.414062 0.03125 10.0625 3.015625 8.894531 5.230469 C 8.894531 5.230469 10.667969 6.882812 11.570312 8.878906 " fill-opacity="1" fill-rule="nonzero"/><path fill="#000000" d="M 18.5 21.246094 L 19.941406 25.078125 L 24.707031 21.699219 L 22.675781 18.695312 C 21.820312 19.550781 18.5 21.246094 18.5 21.246094 " fill-opacity="1" fill-rule="nonzero"/><path fill="#000000" d="M 12.289062 21.699219 L 17.054688 25.078125 L 18.496094 21.246094 C 18.496094 21.246094 15.164062 19.601562 14.285156 18.742188 L 12.289062 21.699219 " fill-opacity="1" fill-rule="nonzero"/><g clip-path="url(#162afcc7dd)"><path fill="#000000" d="M 17.292969 25.855469 L 16.769531 25.484375 L 12.003906 22.101562 L 11.730469 21.910156 L 5.761719 24.132812 L 4.441406 27.015625 L 7.410156 36.996094 L 18.496094 36.996094 L 18.496094 36.449219 C 18.484375 36.449219 18.472656 36.457031 18.457031 36.457031 C 18.183594 36.457031 17.960938 36.234375 17.960938 35.960938 C 17.960938 35.6875 18.183594 35.46875 18.457031 35.46875 C 18.472656 35.46875 18.484375 35.472656 18.496094 35.476562 L 18.496094 34.261719 C 18.484375 34.261719 18.472656 34.269531 18.457031 34.269531 C 18.183594 34.269531 17.960938 34.046875 17.960938 33.773438 C 17.960938 33.5 18.183594 33.28125 18.457031 33.28125 C 18.472656 33.28125 18.484375 33.285156 18.496094 33.289062 L 18.496094 32.074219 C 18.484375 32.074219 18.472656 32.082031 18.457031 32.082031 C 18.183594 32.082031 17.960938 31.859375 17.960938 31.585938 C 17.960938 31.3125 18.183594 31.09375 18.457031 31.09375 C 18.472656 31.09375 18.484375 31.097656 18.496094 31.101562 L 18.496094 29.886719 C 18.484375 29.886719 18.472656 29.894531 18.457031 29.894531 C 18.183594 29.894531 17.960938 29.671875 17.960938 29.398438 C 17.960938 29.125 18.183594 28.90625 18.457031 28.90625 C 18.472656 28.90625 18.484375 28.910156 18.496094 28.914062 L 18.496094 27.699219 C 18.484375 27.699219 18.472656 27.707031 18.457031 27.707031 C 18.183594 27.707031 17.960938 27.484375 17.960938 27.210938 C 17.960938 26.9375 18.183594 26.71875 18.457031 26.71875 C 18.472656 26.71875 18.484375 26.726562 18.496094 26.726562 L 18.496094 22.648438 L 17.515625 25.253906 L 17.292969 25.855469 " fill-opacity="1" fill-rule="nonzero"/></g><g clip-path="url(#b3322657af)"><path fill="#000000" d="M 27.566406 31.433594 C 27.464844 32.699219 25.769531 32.699219 25.539062 33.230469 L 25.527344 33.269531 L 25.511719 33.230469 C 25.28125 32.699219 23.589844 32.699219 23.488281 31.433594 C 23.488281 30.351562 24.304688 29.527344 23.414062 28.910156 L 24.074219 28.375 C 24.335938 28.792969 25.273438 29.007812 25.523438 28.320312 C 25.773438 29.007812 26.714844 28.792969 26.976562 28.375 L 27.640625 28.910156 C 26.75 29.527344 27.566406 30.351562 27.566406 31.433594 Z M 31.234375 24.132812 L 25.265625 21.910156 L 24.992188 22.101562 L 20.226562 25.484375 L 19.703125 25.855469 L 19.480469 25.253906 L 18.5 22.648438 L 18.5 26.726562 C 18.75 26.75 18.953125 26.953125 18.953125 27.210938 C 18.953125 27.472656 18.75 27.675781 18.5 27.699219 L 18.5 28.914062 C 18.75 28.9375 18.953125 29.140625 18.953125 29.398438 C 18.953125 29.65625 18.75 29.863281 18.5 29.886719 L 18.5 31.101562 C 18.75 31.121094 18.953125 31.328125 18.953125 31.585938 C 18.953125 31.84375 18.75 32.050781 18.5 32.074219 L 18.5 33.289062 C 18.75 33.308594 18.953125 33.515625 18.953125 33.773438 C 18.953125 34.03125 18.75 34.238281 18.5 34.261719 L 18.5 35.476562 C 18.75 35.496094 18.953125 35.703125 18.953125 35.960938 C 18.953125 36.21875 18.75 36.425781 18.5 36.449219 L 18.5 36.996094 L 29.585938 36.996094 L 32.554688 27.015625 L 31.234375 24.132812 " fill-opacity="1" fill-rule="nonzero"/></g><path fill="#000000" d="M 27.089844 28.933594 L 27 28.863281 C 26.773438 29.027344 26.476562 29.128906 26.183594 29.128906 C 25.929688 29.128906 25.703125 29.050781 25.527344 28.917969 C 25.347656 29.050781 25.121094 29.128906 24.867188 29.128906 C 24.574219 29.128906 24.277344 29.027344 24.050781 28.863281 L 23.960938 28.933594 C 24.335938 29.429688 24.167969 30.007812 24.027344 30.488281 C 23.941406 30.789062 23.851562 31.097656 23.851562 31.417969 C 23.898438 31.945312 24.316406 32.160156 24.949219 32.433594 C 25.15625 32.523438 25.359375 32.609375 25.527344 32.722656 C 25.691406 32.609375 25.894531 32.523438 26.105469 32.433594 C 26.734375 32.160156 27.152344 31.945312 27.203125 31.417969 C 27.199219 31.097656 27.109375 30.789062 27.023438 30.488281 C 26.886719 30.007812 26.71875 29.429688 27.089844 28.933594 " fill-opacity="1" fill-rule="nonzero"/></svg>