<svg xmlns="http://www.w3.org/2000/svg" xmlns:xlink="http://www.w3.org/1999/xlink" width="50" zoomAndPan="magnify" viewBox="0 0 37.5 37.499999" height="50" preserveAspectRatio="xMidYMid meet" version="1.0"><defs><g/><clipPath id="48ba7132c3"><path d="M 0 12 L 22 12 L 22 31.734375 L 0 31.734375 Z M 0 12 " clip-rule="nonzero"/></clipPath><clipPath id="feb8f83f1a"><path d="M 16 5.089844 L 20 5.089844 L 20 12 L 16 12 Z M 16 5.089844 " clip-rule="nonzero"/></clipPath></defs><path fill="#000000" d="M 34.507812 18.695312 C 34.761719 18.703125 34.90625 18.820312 34.996094 18.996094 C 35.203125 19.410156 35.507812 20.253906 34.863281 20.667969 C 34.332031 21.003906 33.15625 21.386719 32.535156 21.613281 C 31.9375 21.824219 31.707031 21.445312 31.8125 20.800781 C 32.003906 19.597656 32.867188 19.195312 33.6875 18.878906 C 33.890625 18.800781 34.066406 18.75 34.214844 18.722656 C 34.324219 18.699219 34.425781 18.691406 34.507812 18.695312 Z M 29.964844 10.859375 C 28.417969 10.890625 26.84375 11.179688 25.308594 11.457031 C 23.765625 11.734375 22.171875 11.945312 20.734375 12.511719 C 20.03125 12.789062 19.65625 13.375 19.433594 13.960938 C 19.777344 14.582031 20.035156 15.207031 20.273438 15.828125 C 20.390625 15.320312 20.527344 14.816406 20.710938 14.324219 C 20.820312 14.023438 21.003906 13.707031 21.375 13.5625 C 22.832031 13.054688 24.140625 12.847656 25.515625 12.605469 C 26.953125 12.347656 28.375 12.046875 29.730469 12.066406 C 30.128906 12.070312 30.410156 12.304688 30.621094 12.546875 C 31.40625 13.449219 32.007812 14.460938 32.582031 15.550781 C 31.328125 15.90625 28.5625 16.667969 26.328125 17.070312 C 25.25 17.261719 24.03125 17.417969 22.910156 17.539062 C 23.285156 17.984375 23.433594 18.554688 23.433594 19.03125 C 23.433594 19.742188 23.074219 20.46875 22.5625 21.117188 C 22.796875 21.699219 23.046875 22.285156 23.046875 22.996094 L 23.046875 26.679688 L 33.421875 24.816406 L 33.679688 26.222656 C 33.746094 26.585938 34.058594 26.832031 34.378906 26.773438 L 36.039062 26.472656 C 36.367188 26.417969 36.570312 26.078125 36.503906 25.714844 L 36.230469 24.21875 C 36.671875 23.921875 36.984375 23.289062 36.863281 22.625 L 36.140625 18.65625 C 36.050781 18.167969 35.777344 17.660156 35.441406 17.191406 L 35.199219 16.859375 C 35.808594 16.34375 35.957031 15.742188 35.847656 15.144531 C 35.765625 14.695312 35.46875 14.480469 34.972656 14.570312 L 33.722656 14.792969 C 33.128906 13.710938 32.480469 12.65625 31.628906 11.691406 C 31.210938 11.21875 30.679688 10.839844 29.964844 10.859375 Z M 29.964844 10.859375 " fill-opacity="1" fill-rule="evenodd"/><g clip-path="url(#48ba7132c3)"><path fill="#000000" d="M 19.429688 22.6875 C 19.945312 22.679688 20.160156 22.863281 20.246094 23.148438 C 20.390625 23.652344 20.558594 24.652344 19.757812 24.980469 C 19.097656 25.253906 17.710938 25.445312 16.972656 25.570312 C 16.261719 25.691406 16.085938 25.222656 16.332031 24.519531 C 16.792969 23.21875 17.832031 22.945312 18.8125 22.757812 C 19.054688 22.710938 19.257812 22.6875 19.429688 22.6875 Z M 2.535156 22.6875 C 2.703125 22.6875 2.90625 22.710938 3.152344 22.757812 C 4.128906 22.945312 5.167969 23.21875 5.628906 24.519531 C 5.875 25.222656 5.695312 25.691406 4.988281 25.570312 C 4.25 25.445312 2.867188 25.253906 2.207031 24.980469 C 1.402344 24.652344 1.570312 23.652344 1.71875 23.148438 C 1.800781 22.863281 2.019531 22.679688 2.535156 22.6875 Z M 10.980469 14.136719 C 12.632812 14.136719 14.277344 14.089844 15.785156 14.378906 C 16.230469 14.460938 16.492188 14.78125 16.675781 15.09375 C 17.367188 16.253906 17.835938 17.503906 18.253906 18.828125 C 16.785156 18.976562 13.550781 19.273438 10.980469 19.273438 C 8.410156 19.273438 5.179688 18.976562 3.710938 18.828125 C 4.128906 17.503906 4.59375 16.253906 5.28125 15.09375 C 5.46875 14.78125 5.730469 14.460938 6.175781 14.378906 C 7.898438 14.105469 9.398438 14.136719 10.980469 14.136719 Z M 10.980469 12.820312 C 9.210938 12.820312 7.402344 12.8125 5.675781 13.078125 C 4.875 13.203125 4.355469 13.730469 3.988281 14.34375 C 3.230469 15.582031 2.71875 16.890625 2.28125 18.214844 L 0.84375 18.214844 C 0.277344 18.210938 -0.0117188 18.515625 -0.0117188 19.027344 C -0.0117188 19.714844 0.273438 20.355469 1.058594 20.8125 L 0.851562 21.226562 C 0.574219 21.816406 0.375 22.4375 0.375 22.996094 L 0.375 27.5625 C 0.375 28.324219 0.847656 28.96875 1.398438 29.210938 L 1.398438 30.933594 C 1.398438 31.351562 1.695312 31.6875 2.066406 31.6875 L 3.976562 31.6875 C 4.347656 31.6875 4.648438 31.351562 4.648438 30.933594 L 4.648438 29.316406 L 17.316406 29.316406 L 17.316406 30.933594 C 17.316406 31.351562 17.613281 31.6875 17.984375 31.6875 L 19.894531 31.6875 C 20.265625 31.6875 20.566406 31.351562 20.566406 30.933594 L 20.566406 29.210938 C 21.117188 28.96875 21.589844 28.328125 21.589844 27.5625 L 21.589844 22.996094 C 21.589844 22.4375 21.386719 21.816406 21.113281 21.226562 L 20.902344 20.8125 C 21.6875 20.355469 21.972656 19.714844 21.972656 19.027344 C 21.972656 18.515625 21.6875 18.210938 21.117188 18.214844 L 19.679688 18.214844 C 19.238281 16.890625 18.730469 15.582031 17.976562 14.34375 C 17.605469 13.730469 17.089844 13.203125 16.289062 13.078125 C 14.558594 12.8125 12.75 12.820312 10.980469 12.820312 Z M 10.980469 12.820312 " fill-opacity="1" fill-rule="evenodd"/></g><g clip-path="url(#feb8f83f1a)"><path fill="#000000" d="M 18.175781 11.078125 L 17.351562 11.078125 L 16.441406 5.113281 L 19.058594 5.113281 Z M 18.175781 11.078125 " fill-opacity="1" fill-rule="nonzero"/></g><path fill="#000000" d="M 16.382812 11.410156 L 15.90625 11.886719 L 11.933594 8.972656 L 13.441406 7.476562 Z M 16.382812 11.410156 " fill-opacity="1" fill-rule="nonzero"/><path fill="#000000" d="M 19.246094 11.46875 L 19.660156 11.886719 L 23.160156 9.324219 L 21.832031 8.007812 Z M 19.246094 11.46875 " fill-opacity="1" fill-rule="nonzero"/><g fill="#000000" fill-opacity="1"><g transform="translate(9.844982, 25.181395)"><g><path d="M 0.359375 -3.421875 L 0.359375 -3.875 L 0.828125 -3.875 L 0.828125 -3.421875 Z M 0.359375 0 L 0.359375 -2.828125 L 0.828125 -2.828125 L 0.828125 0 Z M 0.359375 0 "/></g></g></g></svg>