<svg xmlns="http://www.w3.org/2000/svg" xmlns:xlink="http://www.w3.org/1999/xlink" width="50" zoomAndPan="magnify" viewBox="0 0 37.5 37.499999" height="50" preserveAspectRatio="xMidYMid meet" version="1.0"><defs><clipPath id="f660e51b8a"><path d="M 0 2.386719 L 37 2.386719 L 37 34.953125 L 0 34.953125 Z M 0 2.386719 " clip-rule="nonzero"/></clipPath></defs><g clip-path="url(#f660e51b8a)"><path fill="#000000" d="M 16.324219 3.828125 C 14.367188 7.289062 9.53125 15.941406 5.644531 22.898438 L 0.503906 32.089844 C 0.0429688 32.914062 0.214844 33.5625 0.359375 33.878906 C 0.648438 34.515625 1.273438 34.832031 1.757812 34.917969 L 1.855469 34.933594 L 35.023438 34.9375 L 34.957031 34.933594 C 35.476562 34.964844 36.167969 34.777344 36.542969 34.148438 C 36.785156 33.746094 36.960938 33.0625 36.410156 32.085938 L 26.140625 13.949219 L 20.457031 3.917969 C 19.746094 2.660156 18.917969 2.394531 18.351562 2.394531 C 17.796875 2.394531 16.996094 2.644531 16.324219 3.828125 Z M 7.667969 24.089844 C 11.550781 17.136719 16.382812 8.484375 18.339844 5.03125 L 18.363281 4.996094 C 18.386719 5.03125 18.410156 5.066406 18.441406 5.117188 L 24.125 15.152344 C 24.125 15.152344 33.195312 31.171875 33.96875 32.542969 L 2.941406 32.542969 L 7.667969 24.089844 " fill-opacity="1" fill-rule="evenodd"/></g><path fill="#000000" d="M 18.492188 30.804688 C 19.496094 30.804688 20.308594 29.953125 20.308594 28.902344 C 20.308594 27.851562 19.496094 27 18.492188 27 C 17.484375 27 16.667969 27.851562 16.667969 28.902344 C 16.667969 29.953125 17.484375 30.804688 18.492188 30.804688 " fill-opacity="1" fill-rule="evenodd"/><path fill="#000000" d="M 18.492188 12.164062 C 19.941406 12.164062 21.277344 13.550781 21.121094 14.910156 L 19.875 24.484375 C 19.753906 25.320312 19.253906 25.929688 18.492188 25.929688 C 17.726562 25.929688 17.222656 25.320312 17.105469 24.484375 L 15.859375 14.910156 C 15.703125 13.550781 17.039062 12.164062 18.492188 12.164062 " fill-opacity="1" fill-rule="evenodd"/></svg>