<svg xmlns="http://www.w3.org/2000/svg" xmlns:xlink="http://www.w3.org/1999/xlink" width="50" zoomAndPan="magnify" viewBox="0 0 37.5 37.499999" height="50" preserveAspectRatio="xMidYMid meet" version="1.0"><defs><g/><clipPath id="6e749de77d"><path d="M 0 0 L 37.007812 0 L 37.007812 37.007812 L 0 37.007812 Z M 0 0 " clip-rule="nonzero"/></clipPath><clipPath id="afd98143b5"><path d="M 11 4.644531 L 26 4.644531 L 26 24 L 11 24 Z M 11 4.644531 " clip-rule="nonzero"/></clipPath><clipPath id="fdd61497f1"><path d="M 4.136719 4.644531 L 33 4.644531 L 33 33.507812 L 4.136719 33.507812 Z M 4.136719 4.644531 " clip-rule="nonzero"/></clipPath><clipPath id="3b522f12f0"><path d="M 8 20 L 23 20 L 23 33.507812 L 8 33.507812 Z M 8 20 " clip-rule="nonzero"/></clipPath><clipPath id="560c6810b3"><path d="M 35 36 L 37.007812 36 L 37.007812 37.007812 L 35 37.007812 Z M 35 36 " clip-rule="nonzero"/></clipPath></defs><g clip-path="url(#6e749de77d)"><path fill="#ffffff" d="M 0 0 L 37.007812 0 L 37.007812 37.007812 L 0 37.007812 Z M 0 0 " fill-opacity="1" fill-rule="nonzero"/><path fill="#ffffff" d="M 0 0 L 37.007812 0 L 37.007812 37.007812 L 0 37.007812 Z M 0 0 " fill-opacity="1" fill-rule="nonzero"/></g><path fill="#231f20" d="M 31.914062 8.824219 L 29.4375 15.492188 L 28.320312 14.996094 L 27.0625 14.171875 L 29.097656 8.824219 Z M 31.914062 8.824219 " fill-opacity="1" fill-rule="nonzero"/><path fill="#231f20" d="M 29.4375 15.492188 C 32.171875 15.878906 31.375 17.589844 31.375 17.589844 L 29.4375 22.644531 C 28.644531 21.703125 27.378906 21.167969 26.324219 20.867188 L 26.839844 19.351562 L 28.320312 14.996094 Z M 29.4375 15.492188 " fill-opacity="1" fill-rule="nonzero"/><g clip-path="url(#afd98143b5)"><path fill="#231f20" d="M 18.253906 4.964844 C 18.253906 4.964844 27.242188 5.074219 24.605469 15.988281 C 24.605469 15.988281 23.105469 18.964844 24.484375 20.507812 L 24.363281 21.558594 C 22.6875 20.839844 20.710938 22.824219 20.710938 22.824219 C 17.597656 24.589844 16.9375 22.824219 16.9375 22.824219 C 16.21875 21.171875 12.144531 20.894531 12.144531 20.894531 L 12.144531 20.179688 C 12.144531 20.179688 13.34375 17.753906 12.144531 15.988281 C 12.144531 15.988281 9.089844 5.902344 18.253906 4.964844 Z M 23.40625 13.453125 L 23.40625 10.972656 C 17.65625 5.242188 13.34375 10.972656 13.34375 10.972656 L 13.34375 13.453125 C 14.480469 14.226562 15.980469 13.507812 15.980469 13.507812 C 18.015625 12.515625 20.890625 13.453125 20.890625 13.453125 C 22.027344 14.117188 23.40625 13.453125 23.40625 13.453125 Z M 23.40625 13.453125 " fill-opacity="1" fill-rule="nonzero"/></g><path fill="#231f20" d="M 31.914062 9.144531 C 31.859375 9.144531 31.808594 9.132812 31.761719 9.105469 C 31.710938 9.078125 31.671875 9.042969 31.644531 8.996094 C 31.613281 8.953125 31.597656 8.902344 31.59375 8.847656 C 31.589844 8.792969 31.597656 8.742188 31.621094 8.691406 L 32.339844 7.09375 C 32.375 7.011719 32.4375 6.957031 32.519531 6.925781 C 32.601562 6.894531 32.683594 6.894531 32.765625 6.933594 C 32.84375 6.96875 32.902344 7.027344 32.933594 7.109375 C 32.964844 7.195312 32.960938 7.277344 32.925781 7.355469 L 32.207031 8.957031 C 32.148438 9.082031 32.050781 9.144531 31.914062 9.144531 Z M 31.914062 9.144531 " fill-opacity="1" fill-rule="nonzero"/><g clip-path="url(#fdd61497f1)"><path fill="#231f20" d="M 32.632812 33.507812 L 4.476562 33.507812 C 4.375 33.507812 4.289062 33.46875 4.226562 33.386719 C 4.160156 33.304688 4.140625 33.214844 4.164062 33.113281 L 6.195312 24.546875 C 6.203125 24.195312 6.375 21.820312 8.9375 20.574219 C 9.769531 20.171875 10.777344 19.933594 11.933594 19.867188 C 12.160156 19.3125 12.785156 17.503906 11.878906 16.171875 C 11.863281 16.144531 11.847656 16.113281 11.839844 16.082031 C 11.777344 15.878906 10.34375 11.019531 12.582031 7.644531 C 13.726562 5.921875 15.625 4.910156 18.222656 4.644531 C 18.234375 4.644531 18.246094 4.644531 18.257812 4.644531 C 18.40625 4.644531 21.847656 4.71875 23.921875 7.394531 C 25.484375 9.410156 25.820312 12.328125 24.917969 16.066406 C 24.910156 16.089844 24.902344 16.113281 24.890625 16.132812 C 24.878906 16.160156 23.570312 18.8125 24.648438 20.203125 C 25.246094 20.273438 25.835938 20.394531 26.414062 20.558594 C 27.886719 20.976562 28.984375 21.609375 29.683594 22.4375 C 29.992188 22.800781 30.21875 23.210938 30.363281 23.664062 C 30.363281 23.667969 30.363281 23.671875 30.367188 23.675781 L 32.941406 33.101562 C 32.96875 33.207031 32.953125 33.296875 32.886719 33.382812 C 32.824219 33.46875 32.738281 33.507812 32.632812 33.507812 Z M 4.882812 32.867188 L 32.210938 32.867188 L 29.75 23.851562 C 29.628906 23.484375 29.445312 23.148438 29.191406 22.855469 C 28.429688 21.945312 27.164062 21.441406 26.238281 21.175781 C 25.65625 21.011719 25.0625 20.894531 24.457031 20.832031 C 24.375 20.824219 24.300781 20.789062 24.246094 20.722656 C 22.808594 19.113281 24.125 16.246094 24.300781 15.878906 C 25.144531 12.359375 24.847656 9.636719 23.414062 7.789062 C 21.597656 5.445312 18.519531 5.296875 18.269531 5.285156 C 15.882812 5.535156 14.148438 6.449219 13.117188 8.003906 C 11.148438 10.964844 12.304688 15.367188 12.441406 15.851562 C 13.679688 17.742188 12.484375 20.214844 12.433594 20.320312 C 12.375 20.4375 12.285156 20.496094 12.15625 20.5 C 11.007812 20.546875 10.019531 20.765625 9.214844 21.15625 C 6.875 22.292969 6.835938 24.496094 6.835938 24.589844 C 6.835938 24.613281 6.832031 24.640625 6.824219 24.664062 Z M 4.882812 32.867188 " fill-opacity="1" fill-rule="nonzero"/></g><path fill="#231f20" d="M 14.589844 14.132812 C 14.074219 14.144531 13.597656 14.007812 13.164062 13.71875 C 13.070312 13.65625 13.023438 13.566406 13.023438 13.453125 L 13.023438 10.972656 C 13.023438 10.902344 13.042969 10.835938 13.085938 10.777344 C 13.164062 10.679688 14.964844 8.324219 17.847656 8.117188 C 19.796875 7.980469 21.746094 8.863281 23.632812 10.746094 C 23.695312 10.808594 23.726562 10.882812 23.726562 10.972656 L 23.726562 13.453125 C 23.726562 13.589844 23.667969 13.683594 23.546875 13.742188 C 23.484375 13.773438 22.023438 14.457031 20.761719 13.75 C 20.460938 13.660156 17.90625 12.925781 16.121094 13.796875 C 15.632812 14.015625 15.125 14.128906 14.589844 14.132812 Z M 13.664062 13.273438 C 14.617188 13.785156 15.828125 13.226562 15.839844 13.21875 C 17.96875 12.183594 20.867188 13.109375 20.988281 13.148438 C 21.011719 13.15625 21.03125 13.164062 21.050781 13.175781 C 21.800781 13.613281 22.707031 13.371094 23.085938 13.234375 L 23.085938 11.109375 C 21.367188 9.429688 19.621094 8.636719 17.898438 8.757812 C 15.59375 8.921875 14 10.6875 13.664062 11.085938 Z M 13.664062 13.273438 " fill-opacity="1" fill-rule="nonzero"/><path fill="#231f20" d="M 18.347656 23.929688 C 18.089844 23.933594 17.835938 23.890625 17.585938 23.804688 C 17.152344 23.65625 16.835938 23.371094 16.640625 22.949219 C 16.113281 21.742188 13.203125 21.289062 12.125 21.214844 C 12.039062 21.210938 11.96875 21.175781 11.910156 21.117188 C 11.851562 21.054688 11.824219 20.980469 11.824219 20.894531 L 11.824219 20.179688 C 11.824219 20.089844 11.855469 20.015625 11.917969 19.953125 C 11.980469 19.886719 12.054688 19.855469 12.144531 19.855469 C 12.234375 19.855469 12.308594 19.886719 12.371094 19.953125 C 12.433594 20.015625 12.464844 20.089844 12.464844 20.179688 L 12.464844 20.601562 C 13.101562 20.667969 13.730469 20.777344 14.347656 20.929688 C 15.921875 21.320312 16.890625 21.914062 17.230469 22.695312 C 17.234375 22.703125 17.234375 22.707031 17.238281 22.710938 C 17.242188 22.722656 17.378906 23.050781 17.824219 23.207031 C 18.261719 23.359375 19.082031 23.371094 20.515625 22.566406 C 20.78125 22.3125 22.457031 20.773438 24.089844 21.132812 L 24.167969 20.472656 C 24.175781 20.382812 24.214844 20.3125 24.285156 20.257812 C 24.355469 20.203125 24.433594 20.179688 24.519531 20.191406 C 24.609375 20.199219 24.679688 20.238281 24.734375 20.308594 C 24.792969 20.378906 24.8125 20.457031 24.804688 20.546875 L 24.683594 21.59375 C 24.671875 21.699219 24.621094 21.78125 24.527344 21.835938 C 24.433594 21.890625 24.339844 21.894531 24.238281 21.851562 C 22.777344 21.230469 20.957031 23.035156 20.9375 23.050781 C 20.917969 23.074219 20.894531 23.089844 20.867188 23.105469 C 19.898438 23.65625 19.054688 23.929688 18.347656 23.929688 Z M 18.347656 23.929688 " fill-opacity="1" fill-rule="nonzero"/><g clip-path="url(#3b522f12f0)"><path fill="#231f20" d="M 22.628906 33.507812 C 22.609375 33.507812 22.589844 33.507812 22.570312 33.503906 C 21.308594 33.265625 19.960938 32.675781 18.566406 31.757812 C 18.0625 31.421875 17.546875 31.042969 17.035156 30.628906 C 16.421875 30.132812 15.789062 29.566406 15.160156 28.953125 C 14.695312 28.5 14.226562 28.015625 13.765625 27.515625 C 13.257812 26.960938 12.746094 26.367188 12.242188 25.753906 C 11.835938 25.261719 11.425781 24.742188 11.023438 24.210938 C 9.660156 22.414062 8.8125 21.050781 8.804688 21.039062 C 8.757812 20.960938 8.746094 20.882812 8.765625 20.792969 C 8.785156 20.707031 8.832031 20.640625 8.910156 20.59375 C 8.984375 20.546875 9.066406 20.535156 9.152344 20.554688 C 9.238281 20.574219 9.304688 20.621094 9.351562 20.699219 C 9.359375 20.710938 10.191406 22.050781 11.535156 23.820312 C 11.933594 24.347656 12.335938 24.859375 12.738281 25.34375 C 13.234375 25.949219 13.738281 26.535156 14.238281 27.078125 C 14.691406 27.570312 15.148438 28.046875 15.605469 28.492188 C 16.222656 29.09375 16.839844 29.644531 17.4375 30.125 C 17.933594 30.53125 18.433594 30.898438 18.921875 31.21875 C 20.246094 32.09375 21.511719 32.648438 22.6875 32.871094 C 22.878906 32.90625 22.964844 33.023438 22.949219 33.21875 C 22.929688 33.414062 22.824219 33.507812 22.628906 33.507812 Z M 22.628906 33.507812 " fill-opacity="1" fill-rule="nonzero"/></g><path fill="#231f20" d="M 8.429688 25.683594 C 8.257812 25.683594 8.15625 25.597656 8.117188 25.429688 C 8.078125 25.261719 8.140625 25.144531 8.292969 25.070312 L 11.140625 23.726562 C 11.222656 23.6875 11.304688 23.683594 11.386719 23.714844 C 11.46875 23.746094 11.53125 23.800781 11.570312 23.878906 C 11.605469 23.960938 11.609375 24.042969 11.582031 24.125 C 11.550781 24.210938 11.496094 24.269531 11.414062 24.308594 L 8.566406 25.652344 C 8.523438 25.671875 8.480469 25.683594 8.429688 25.683594 Z M 8.429688 25.683594 " fill-opacity="1" fill-rule="nonzero"/><path fill="#231f20" d="M 9.449219 27.347656 C 9.277344 27.347656 9.175781 27.265625 9.136719 27.101562 C 9.097656 26.933594 9.15625 26.8125 9.308594 26.738281 L 12.347656 25.261719 C 12.429688 25.222656 12.511719 25.214844 12.59375 25.246094 C 12.679688 25.273438 12.738281 25.328125 12.777344 25.410156 C 12.816406 25.488281 12.820312 25.570312 12.792969 25.65625 C 12.761719 25.738281 12.707031 25.800781 12.628906 25.839844 L 9.589844 27.316406 C 9.542969 27.339844 9.5 27.347656 9.449219 27.347656 Z M 9.449219 27.347656 " fill-opacity="1" fill-rule="nonzero"/><path fill="#231f20" d="M 11.277344 29.042969 C 11.109375 29.046875 11.007812 28.964844 10.96875 28.800781 C 10.925781 28.636719 10.980469 28.515625 11.128906 28.4375 L 13.855469 27.011719 C 13.933594 26.972656 14.015625 26.964844 14.097656 26.992188 C 14.183594 27.015625 14.246094 27.070312 14.289062 27.148438 C 14.328125 27.226562 14.335938 27.308594 14.308594 27.394531 C 14.28125 27.476562 14.230469 27.539062 14.152344 27.582031 L 11.425781 29.007812 C 11.378906 29.03125 11.332031 29.042969 11.277344 29.042969 Z M 11.277344 29.042969 " fill-opacity="1" fill-rule="nonzero"/><path fill="#231f20" d="M 12.488281 30.699219 C 12.324219 30.699219 12.222656 30.617188 12.179688 30.460938 C 12.136719 30.300781 12.1875 30.179688 12.328125 30.097656 L 15.222656 28.445312 C 15.300781 28.398438 15.382812 28.390625 15.46875 28.414062 C 15.554688 28.4375 15.617188 28.484375 15.664062 28.5625 C 15.707031 28.640625 15.714844 28.722656 15.691406 28.808594 C 15.667969 28.894531 15.617188 28.957031 15.542969 29.003906 L 12.648438 30.65625 C 12.597656 30.683594 12.546875 30.699219 12.488281 30.699219 Z M 12.488281 30.699219 " fill-opacity="1" fill-rule="nonzero"/><path fill="#231f20" d="M 14.363281 32.078125 C 14.191406 32.078125 14.085938 31.992188 14.046875 31.824219 C 14.011719 31.660156 14.070312 31.539062 14.222656 31.464844 L 17.089844 30.089844 C 17.253906 30.007812 17.386719 30.039062 17.496094 30.1875 C 17.601562 30.335938 17.59375 30.472656 17.464844 30.605469 C 17.4375 30.628906 17.40625 30.652344 17.375 30.667969 L 14.5 32.046875 C 14.457031 32.066406 14.410156 32.078125 14.363281 32.078125 Z M 14.363281 32.078125 " fill-opacity="1" fill-rule="nonzero"/><path fill="#231f20" d="M 17.238281 32.683594 C 17.070312 32.683594 16.96875 32.601562 16.925781 32.445312 C 16.882812 32.285156 16.933594 32.164062 17.074219 32.082031 L 18.578125 31.210938 C 18.738281 31.113281 18.878906 31.136719 18.996094 31.289062 C 19.113281 31.4375 19.105469 31.578125 18.972656 31.714844 C 18.953125 31.734375 18.929688 31.75 18.90625 31.765625 L 17.398438 32.640625 C 17.347656 32.667969 17.292969 32.683594 17.238281 32.683594 Z M 17.238281 32.683594 " fill-opacity="1" fill-rule="nonzero"/><path fill="#231f20" d="M 29.4375 22.96875 C 29.382812 22.96875 29.332031 22.957031 29.28125 22.929688 C 29.234375 22.902344 29.195312 22.867188 29.167969 22.820312 C 29.136719 22.777344 29.121094 22.726562 29.117188 22.671875 C 29.113281 22.617188 29.121094 22.566406 29.144531 22.515625 L 31.074219 17.472656 C 31.078125 17.464844 31.082031 17.457031 31.082031 17.453125 C 31.089844 17.4375 31.273438 17.011719 31.054688 16.613281 C 30.832031 16.210938 30.257812 15.933594 29.390625 15.8125 C 29.289062 15.796875 29.210938 15.746094 29.160156 15.660156 C 29.109375 15.570312 29.097656 15.476562 29.136719 15.382812 L 31.453125 9.144531 L 29.320312 9.144531 L 27.453125 14.042969 L 28.496094 14.730469 C 28.632812 14.820312 28.675781 14.945312 28.625 15.101562 L 26.628906 20.972656 C 26.601562 21.054688 26.546875 21.117188 26.46875 21.15625 C 26.386719 21.195312 26.304688 21.199219 26.222656 21.171875 C 26.140625 21.144531 26.078125 21.089844 26.039062 21.007812 C 26 20.929688 25.992188 20.847656 26.023438 20.765625 L 27.933594 15.128906 L 26.886719 14.4375 C 26.742188 14.34375 26.699219 14.21875 26.761719 14.054688 L 28.796875 8.707031 C 28.851562 8.570312 28.949219 8.5 29.097656 8.5 L 31.914062 8.5 C 32.023438 8.5 32.113281 8.546875 32.175781 8.640625 C 32.242188 8.730469 32.253906 8.832031 32.214844 8.9375 L 29.871094 15.242188 C 30.75 15.425781 31.335938 15.785156 31.621094 16.3125 C 31.96875 16.957031 31.714844 17.605469 31.671875 17.710938 L 29.734375 22.761719 C 29.683594 22.898438 29.582031 22.96875 29.4375 22.96875 Z M 29.4375 22.96875 " fill-opacity="1" fill-rule="nonzero"/><path fill="#231f20" d="M 26.839844 19.675781 L 25.144531 19.675781 C 24.992188 19.675781 24.890625 19.601562 24.839844 19.457031 C 24.507812 18.480469 25.195312 16.960938 25.273438 16.789062 C 25.3125 16.710938 25.371094 16.65625 25.453125 16.625 C 25.539062 16.59375 25.621094 16.597656 25.699219 16.636719 C 25.78125 16.671875 25.835938 16.734375 25.863281 16.816406 C 25.894531 16.902344 25.890625 16.984375 25.855469 17.0625 C 25.691406 17.417969 25.328125 18.386719 25.402344 19.03125 L 26.839844 19.03125 C 26.929688 19.03125 27.003906 19.0625 27.066406 19.125 C 27.128906 19.1875 27.160156 19.261719 27.160156 19.351562 C 27.160156 19.441406 27.128906 19.515625 27.066406 19.578125 C 27.003906 19.644531 26.929688 19.675781 26.839844 19.675781 Z M 26.839844 19.675781 " fill-opacity="1" fill-rule="nonzero"/><path fill="#231f20" d="M 29.4375 15.816406 C 29.390625 15.816406 29.347656 15.804688 29.304688 15.789062 L 28.1875 15.292969 C 28.109375 15.253906 28.050781 15.195312 28.019531 15.113281 C 27.988281 15.03125 27.992188 14.949219 28.027344 14.867188 C 28.0625 14.785156 28.121094 14.730469 28.203125 14.699219 C 28.285156 14.664062 28.367188 14.667969 28.449219 14.703125 L 29.566406 15.199219 C 29.722656 15.269531 29.785156 15.390625 29.75 15.558594 C 29.714844 15.730469 29.609375 15.816406 29.4375 15.816406 Z M 29.4375 15.816406 " fill-opacity="1" fill-rule="nonzero"/><g clip-path="url(#560c6810b3)"><g fill="#000000" fill-opacity="1"><g transform="translate(35.359784, 44.259869)"><g><path d="M 3.203125 -0.046875 C 2.859375 0.046875 2.507812 0.09375 2.15625 0.09375 C 1.320312 0.09375 0.90625 -0.378906 0.90625 -1.328125 L 0.90625 -5.5 L 0.171875 -5.5 L 0.171875 -6.25 L 0.9375 -6.25 L 1.25 -7.65625 L 1.9375 -7.65625 L 1.9375 -6.25 L 3.09375 -6.25 L 3.09375 -5.5 L 1.9375 -5.5 L 1.9375 -1.546875 C 1.9375 -1.242188 1.984375 -1.03125 2.078125 -0.90625 C 2.179688 -0.789062 2.359375 -0.734375 2.609375 -0.734375 C 2.742188 -0.734375 2.941406 -0.757812 3.203125 -0.8125 Z M 3.203125 -0.046875 "/></g></g></g></g></svg>