<svg xmlns="http://www.w3.org/2000/svg" xmlns:xlink="http://www.w3.org/1999/xlink" width="50" zoomAndPan="magnify" viewBox="0 0 37.5 37.499999" height="50" preserveAspectRatio="xMidYMid meet" version="1.0"><defs><clipPath id="34f5ec2599"><path d="M 1.179688 0 L 35.96875 0 L 35.96875 37 L 1.179688 37 Z M 1.179688 0 " clip-rule="nonzero"/></clipPath><clipPath id="fa1e0a18e4"><path d="M 1.179688 32 L 35.96875 32 L 35.96875 37 L 1.179688 37 Z M 1.179688 32 " clip-rule="nonzero"/></clipPath><clipPath id="0570e4706d"><path d="M 1.179688 0 L 35.96875 0 L 35.96875 37 L 1.179688 37 Z M 1.179688 0 " clip-rule="nonzero"/></clipPath></defs><g clip-path="url(#34f5ec2599)"><path fill="#5d5560" d="M 27.742188 32.367188 C 27.742188 32.367188 28.3125 31.734375 28.132812 30.804688 C 27.957031 29.875 27.21875 29.578125 27.078125 28.269531 C 26.925781 26.863281 27.050781 25.25 27.058594 25.15625 C 27.058594 25.152344 27.058594 25.152344 27.058594 25.152344 C 27.460938 24.640625 27.855469 24.019531 28.144531 23.308594 C 29.039062 21.089844 29.199219 9.414062 29.03125 7.953125 C 28.785156 5.847656 27.90625 4.421875 27.449219 3.816406 C 27.289062 3.59375 27.199219 3.332031 27.199219 3.058594 C 27.203125 2.507812 27.113281 1.554688 26.503906 1.042969 C 25.621094 0.300781 18.777344 0.421875 13.332031 1.785156 C 7.886719 3.152344 6.988281 6.855469 6.765625 8.605469 C 6.546875 10.347656 6.765625 19.082031 7.894531 22.121094 C 8.460938 23.65625 9.332031 24.90625 10.046875 25.765625 C 10.046875 25.765625 10.550781 27.761719 10.171875 28.785156 C 9.800781 29.785156 9.253906 30.097656 8.796875 30.796875 C 8.34375 31.496094 8.667969 32.367188 8.667969 32.367188 C 5.644531 33.09375 3.296875 34.578125 1.503906 36.683594 L 35.652344 36.683594 C 33.316406 34.355469 30.628906 33.0625 27.742188 32.367188 Z M 27.742188 32.367188 " fill-opacity="1" fill-rule="nonzero"/></g><path fill="#fec4b9" d="M 16.910156 32.925781 C 18.179688 32.96875 19.214844 33.566406 20.378906 33.683594 L 20.378906 33.6875 C 20.378906 33.6875 19.382812 35.097656 18.683594 35.097656 C 17.988281 35.097656 16.46875 32.925781 16.46875 32.925781 C 16.582031 32.921875 16.695312 32.921875 16.816406 32.921875 C 16.851562 32.921875 16.882812 32.921875 16.910156 32.925781 Z M 16.910156 32.925781 " fill-opacity="1" fill-rule="nonzero"/><path fill="#fec4b9" d="M 20.144531 21.554688 C 20.707031 22.023438 21.78125 23.011719 21.539062 23.539062 C 21.214844 24.246094 16.816406 24.757812 16.023438 23.667969 C 15.488281 22.941406 16.011719 22.128906 16.414062 21.664062 C 16.625 21.425781 16.929688 21.292969 17.246094 21.292969 L 19.425781 21.292969 C 19.6875 21.292969 19.941406 21.386719 20.144531 21.554688 Z M 20.144531 21.554688 " fill-opacity="1" fill-rule="nonzero"/><path fill="#fec4b9" d="M 25.304688 14.144531 C 25.523438 14.863281 25.589844 15.980469 24.492188 16.980469 C 22.691406 18.617188 18.753906 18.808594 18.613281 16.613281 C 18.539062 15.421875 20.613281 14.96875 22.34375 14.441406 C 23.128906 14.203125 23.828125 13.914062 24.304688 13.699219 C 24.707031 13.523438 25.183594 13.726562 25.304688 14.144531 Z M 22.65625 16.304688 C 22.65625 15.960938 22.371094 15.679688 22.023438 15.679688 C 21.675781 15.679688 21.394531 15.960938 21.394531 16.304688 C 21.394531 16.648438 21.675781 16.929688 22.023438 16.929688 C 22.371094 16.929688 22.65625 16.648438 22.65625 16.304688 Z M 22.65625 16.304688 " fill-opacity="1" fill-rule="nonzero"/><path fill="#fec4b9" d="M 12.890625 14.441406 C 14.625 14.96875 16.695312 15.421875 16.621094 16.613281 C 16.480469 18.808594 12.542969 18.617188 10.742188 16.980469 C 9.644531 15.980469 9.710938 14.863281 9.929688 14.144531 C 10.050781 13.726562 10.527344 13.523438 10.929688 13.699219 C 11.40625 13.914062 12.105469 14.203125 12.890625 14.441406 Z M 13.84375 16.304688 C 13.84375 15.960938 13.558594 15.679688 13.210938 15.679688 C 12.863281 15.679688 12.578125 15.960938 12.578125 16.304688 C 12.578125 16.648438 12.863281 16.929688 13.210938 16.929688 C 13.558594 16.929688 13.84375 16.648438 13.84375 16.304688 Z M 13.84375 16.304688 " fill-opacity="1" fill-rule="nonzero"/><g clip-path="url(#fa1e0a18e4)"><path fill="#888c8d" d="M 20.378906 33.683594 C 20.585938 33.707031 20.804688 33.714844 21.023438 33.699219 C 22.492188 33.597656 23.632812 32.816406 24.527344 32.660156 C 24.699219 32.628906 24.933594 32.597656 25.1875 32.574219 C 26.238281 32.457031 27.742188 32.367188 27.742188 32.367188 C 30.628906 33.0625 33.316406 34.355469 35.652344 36.683594 L 1.503906 36.683594 C 3.296875 34.578125 5.644531 33.09375 8.667969 32.367188 C 8.667969 32.367188 10.304688 32.972656 11.820312 33.265625 C 12.261719 33.351562 12.6875 33.410156 13.066406 33.421875 C 13.878906 33.449219 14.417969 33.328125 14.9375 33.199219 C 15.40625 33.082031 15.855469 32.957031 16.46875 32.925781 C 16.46875 32.925781 17.988281 35.097656 18.683594 35.097656 C 19.382812 35.097656 20.378906 33.6875 20.378906 33.6875 Z M 20.378906 33.683594 " fill-opacity="1" fill-rule="nonzero"/></g><path fill="#524956" d="M 25.53125 3.496094 C 25.199219 2.738281 24.855469 2.148438 24.550781 1.710938 C 24.007812 0.921875 23.585938 0.597656 23.585938 0.597656 C 25.101562 0.621094 26.1875 0.777344 26.503906 1.042969 C 27.113281 1.554688 27.203125 2.507812 27.199219 3.058594 C 27.199219 3.332031 27.289062 3.59375 27.449219 3.816406 C 27.570312 3.976562 27.71875 4.195312 27.878906 4.464844 C 28.324219 5.222656 28.851562 6.402344 29.03125 7.953125 C 29.199219 9.414062 29.039062 21.089844 28.144531 23.308594 C 27.855469 24.019531 27.460938 24.640625 27.058594 25.152344 C 27.058594 25.152344 27.058594 25.152344 27.058594 25.15625 C 27.050781 25.25 26.925781 26.863281 27.078125 28.269531 C 27.21875 29.578125 27.957031 29.875 28.132812 30.804688 C 28.3125 31.734375 27.742188 32.367188 27.742188 32.367188 C 27.742188 32.367188 26.238281 32.457031 25.1875 32.574219 C 24.933594 32.597656 24.699219 32.628906 24.527344 32.660156 C 24.527344 32.660156 25.160156 30.574219 23.738281 29.796875 C 22.320312 29.019531 22.65625 27.078125 22.65625 27.078125 C 22.65625 27.078125 25.726562 26.53125 26.816406 15.230469 C 27.375 9.425781 26.503906 5.722656 25.53125 3.496094 Z M 25.53125 3.496094 " fill-opacity="1" fill-rule="nonzero"/><path fill="#3a322b" d="M 25.1875 8.738281 C 25.195312 8.738281 25.203125 8.738281 25.210938 8.738281 C 25.375 8.726562 25.496094 8.585938 25.480469 8.425781 C 25.261719 5.644531 25.535156 3.71875 26.339844 2.363281 C 26.421875 2.222656 26.375 2.046875 26.238281 1.964844 C 26.097656 1.882812 25.914062 1.929688 25.832031 2.066406 C 24.960938 3.53125 24.664062 5.566406 24.894531 8.472656 C 24.90625 8.625 25.035156 8.738281 25.1875 8.738281 Z M 25.1875 8.738281 " fill-opacity="1" fill-rule="nonzero"/><path fill="#3a322b" d="M 15.636719 18.285156 C 16.410156 17.976562 16.867188 17.390625 16.914062 16.628906 C 16.996094 15.34375 15.253906 14.832031 13.566406 14.335938 C 13.367188 14.277344 13.171875 14.21875 12.976562 14.160156 C 12.191406 13.921875 11.496094 13.636719 11.050781 13.4375 C 10.777344 13.3125 10.46875 13.3125 10.195312 13.4375 C 9.929688 13.558594 9.726562 13.785156 9.644531 14.058594 C 9.292969 15.230469 9.613281 16.34375 10.542969 17.191406 C 11.46875 18.03125 12.921875 18.527344 14.214844 18.527344 C 14.730469 18.527344 15.21875 18.449219 15.636719 18.285156 Z M 10.210938 14.226562 C 10.246094 14.109375 10.328125 14.019531 10.441406 13.964844 C 10.554688 13.914062 10.691406 13.914062 10.808594 13.964844 C 11.269531 14.171875 11.988281 14.46875 12.804688 14.71875 C 13 14.777344 13.199219 14.835938 13.398438 14.894531 C 14.796875 15.304688 16.378906 15.769531 16.328125 16.59375 C 16.292969 17.132812 15.988281 17.519531 15.417969 17.742188 C 14.15625 18.242188 12.066406 17.785156 10.945312 16.765625 C 9.972656 15.878906 10.007812 14.894531 10.210938 14.226562 Z M 10.210938 14.226562 " fill-opacity="1" fill-rule="nonzero"/><path fill="#3a322b" d="M 13.210938 15.679688 C 12.863281 15.679688 12.578125 15.960938 12.578125 16.304688 C 12.578125 16.648438 12.863281 16.925781 13.210938 16.925781 C 13.558594 16.925781 13.839844 16.648438 13.839844 16.304688 C 13.839844 15.960938 13.558594 15.679688 13.210938 15.679688 Z M 13.210938 15.679688 " fill-opacity="1" fill-rule="nonzero"/><path fill="#3a322b" d="M 19.597656 18.285156 C 20.015625 18.449219 20.503906 18.527344 21.019531 18.527344 C 22.3125 18.527344 23.769531 18.03125 24.691406 17.191406 C 25.949219 16.046875 25.792969 14.738281 25.589844 14.058594 C 25.507812 13.785156 25.304688 13.558594 25.039062 13.4375 C 24.769531 13.316406 24.457031 13.3125 24.183594 13.4375 C 23.738281 13.636719 23.042969 13.921875 22.257812 14.160156 C 22.066406 14.21875 21.867188 14.277344 21.667969 14.335938 C 19.980469 14.832031 18.238281 15.34375 18.320312 16.628906 C 18.371094 17.390625 18.824219 17.976562 19.597656 18.285156 Z M 21.835938 14.894531 C 22.035156 14.835938 22.234375 14.777344 22.429688 14.71875 C 23.246094 14.46875 23.96875 14.171875 24.429688 13.964844 C 24.484375 13.941406 24.546875 13.925781 24.609375 13.925781 C 24.671875 13.925781 24.734375 13.941406 24.792969 13.96875 C 24.910156 14.019531 24.988281 14.109375 25.023438 14.226562 C 25.226562 14.894531 25.265625 15.878906 24.292969 16.765625 C 23.167969 17.785156 21.078125 18.242188 19.816406 17.742188 C 19.25 17.519531 18.941406 17.132812 18.910156 16.59375 C 18.855469 15.769531 20.4375 15.304688 21.835938 14.894531 Z M 21.835938 14.894531 " fill-opacity="1" fill-rule="nonzero"/><path fill="#3a322b" d="M 22.023438 16.925781 C 22.371094 16.925781 22.65625 16.648438 22.65625 16.304688 C 22.65625 15.960938 22.371094 15.679688 22.023438 15.679688 C 21.675781 15.679688 21.394531 15.960938 21.394531 16.304688 C 21.394531 16.648438 21.675781 16.925781 22.023438 16.925781 Z M 22.023438 16.925781 " fill-opacity="1" fill-rule="nonzero"/><path fill="#3a322b" d="M 15.78125 23.839844 C 16.234375 24.457031 17.40625 24.589844 18.320312 24.589844 C 18.753906 24.589844 19.125 24.558594 19.339844 24.539062 C 19.847656 24.488281 21.523438 24.273438 21.808594 23.660156 C 21.898438 23.464844 22.171875 22.867188 20.332031 21.332031 C 20.078125 21.117188 19.753906 21 19.425781 21 L 17.25 21 C 16.839844 21 16.457031 21.175781 16.191406 21.476562 C 15.441406 22.332031 15.296875 23.171875 15.78125 23.839844 Z M 17.25 21.582031 L 19.425781 21.582031 C 19.53125 21.582031 19.636719 21.605469 19.734375 21.648438 C 19.308594 22.214844 18.613281 22.496094 17.613281 22.503906 C 17.453125 22.503906 17.320312 22.636719 17.324219 22.796875 C 17.324219 22.957031 17.457031 23.085938 17.617188 23.085938 C 17.617188 23.085938 17.617188 23.085938 17.621094 23.085938 C 18.804688 23.078125 19.671875 22.710938 20.207031 21.992188 C 21.097656 22.78125 21.339844 23.273438 21.273438 23.417969 C 21.167969 23.585938 20.195312 23.9375 18.710938 24 C 17.484375 24.046875 16.519531 23.851562 16.261719 23.496094 C 15.863281 22.953125 16.246094 22.304688 16.636719 21.855469 C 16.789062 21.683594 17.011719 21.582031 17.25 21.582031 Z M 17.25 21.582031 " fill-opacity="1" fill-rule="nonzero"/><g clip-path="url(#0570e4706d)"><path fill="#3a322b" d="M 35.863281 36.480469 C 33.765625 34.394531 31.257812 32.988281 28.210938 32.183594 C 28.375 31.867188 28.539062 31.367188 28.425781 30.75 C 28.335938 30.289062 28.128906 29.96875 27.925781 29.65625 C 27.675781 29.269531 27.441406 28.90625 27.371094 28.238281 C 27.238281 27.019531 27.320312 25.617188 27.347656 25.261719 C 27.742188 24.746094 28.132812 24.125 28.417969 23.414062 C 29.34375 21.113281 29.488281 9.355469 29.324219 7.921875 C 29.074219 5.777344 28.191406 4.320312 27.6875 3.640625 C 27.5625 3.472656 27.496094 3.269531 27.496094 3.058594 C 27.5 2.476562 27.398438 1.414062 26.695312 0.824219 C 26.570312 0.714844 26.347656 0.625 26.050781 0.550781 C 26.019531 0.535156 25.984375 0.527344 25.945312 0.527344 C 23.769531 0.03125 17.953125 0.328125 13.261719 1.503906 C 9.28125 2.503906 6.9375 4.945312 6.476562 8.566406 C 6.246094 10.382812 6.488281 19.171875 7.617188 22.21875 C 8.1875 23.769531 9.050781 25.027344 9.78125 25.90625 C 9.917969 26.488281 10.167969 27.945312 9.894531 28.683594 C 9.675781 29.28125 9.386719 29.609375 9.085938 29.960938 C 8.90625 30.164062 8.722656 30.375 8.550781 30.640625 C 8.195312 31.183594 8.238281 31.796875 8.308594 32.15625 C 5.46875 32.898438 3.101562 34.355469 1.28125 36.496094 C 1.207031 36.585938 1.191406 36.707031 1.238281 36.808594 C 1.285156 36.910156 1.390625 36.976562 1.503906 36.976562 L 35.652344 36.976562 C 35.773438 36.976562 35.878906 36.90625 35.925781 36.796875 C 35.96875 36.6875 35.945312 36.5625 35.863281 36.480469 Z M 9.046875 30.953125 C 9.195312 30.722656 9.359375 30.535156 9.53125 30.339844 C 9.855469 29.964844 10.191406 29.578125 10.449219 28.882812 C 10.671875 28.289062 10.621094 27.417969 10.527344 26.738281 C 10.863281 27.078125 11.089844 27.273438 11.121094 27.296875 C 11.175781 27.34375 11.242188 27.367188 11.308594 27.367188 C 11.394531 27.367188 11.476562 27.332031 11.535156 27.261719 C 11.640625 27.140625 11.625 26.957031 11.5 26.851562 C 11.480469 26.835938 9.253906 24.945312 8.167969 22.019531 C 7.066406 19.042969 6.835938 10.425781 7.0625 8.640625 C 7.492188 5.226562 9.628906 3.015625 13.40625 2.066406 C 17.796875 0.964844 22.757812 0.730469 25.066406 0.964844 C 24 1.65625 23.160156 2.6875 22.628906 4.003906 C 22.570312 4.15625 22.640625 4.324219 22.792969 4.382812 C 22.828125 4.398438 22.867188 4.40625 22.902344 4.40625 C 23.019531 4.40625 23.128906 4.335938 23.175781 4.222656 C 23.765625 2.761719 24.710938 1.71875 25.980469 1.117188 C 26.136719 1.164062 26.25 1.210938 26.3125 1.265625 C 26.835938 1.707031 26.910156 2.578125 26.90625 3.058594 C 26.90625 3.394531 27.011719 3.714844 27.214844 3.988281 C 27.683594 4.617188 28.503906 5.976562 28.738281 7.988281 C 28.914062 9.511719 28.726562 21.074219 27.871094 23.199219 C 27.046875 25.25 25.253906 26.53125 25.234375 26.542969 C 25.101562 26.636719 25.070312 26.820312 25.164062 26.949219 C 25.261719 27.082031 25.445312 27.113281 25.574219 27.019531 C 25.617188 26.992188 26.117188 26.632812 26.71875 25.996094 C 26.699219 26.621094 26.695312 27.488281 26.785156 28.300781 C 26.871094 29.105469 27.167969 29.566406 27.429688 29.96875 C 27.617188 30.257812 27.777344 30.507812 27.84375 30.859375 C 27.957031 31.453125 27.714844 31.902344 27.589844 32.082031 C 27.230469 32.105469 26.238281 32.171875 25.402344 32.257812 C 24.988281 30.855469 24.789062 29.550781 24.792969 28.273438 C 24.796875 28.109375 24.664062 27.980469 24.5 27.980469 C 24.335938 27.980469 24.207031 28.109375 24.207031 28.269531 C 24.199219 29.574219 24.398438 30.90625 24.808594 32.324219 C 24.683594 32.339844 24.574219 32.359375 24.476562 32.375 C 24.09375 32.441406 23.679688 32.609375 23.242188 32.785156 C 22.589844 33.050781 21.847656 33.351562 21 33.410156 C 20.675781 33.433594 20.367188 33.402344 20.058594 33.34375 C 19.796875 32.199219 19.839844 30.941406 20.195312 29.5 C 20.234375 29.34375 20.136719 29.1875 19.976562 29.148438 C 19.820312 29.109375 19.660156 29.207031 19.621094 29.363281 C 19.273438 30.777344 19.207031 32.035156 19.421875 33.191406 C 19.261719 33.148438 19.097656 33.097656 18.933594 33.046875 C 18.417969 32.890625 17.886719 32.730469 17.304688 32.664062 C 17.558594 31.78125 17.609375 30.804688 17.449219 29.753906 C 17.421875 29.59375 17.277344 29.484375 17.113281 29.507812 C 16.953125 29.53125 16.839844 29.679688 16.867188 29.839844 C 17.019531 30.859375 16.960938 31.796875 16.695312 32.632812 C 16.140625 32.636719 15.707031 32.714844 15.3125 32.808594 C 15.566406 31.410156 15.601562 30.132812 15.414062 28.921875 C 15.390625 28.761719 15.238281 28.652344 15.078125 28.675781 C 14.917969 28.703125 14.808594 28.851562 14.832031 29.007812 C 15.019531 30.230469 14.96875 31.523438 14.683594 32.960938 C 14.230469 33.070312 13.757812 33.152344 13.074219 33.132812 C 12.820312 33.125 12.535156 33.09375 12.242188 33.046875 C 12.851562 31.648438 13.050781 30.03125 12.824219 28.234375 C 12.800781 28.074219 12.660156 27.960938 12.492188 27.980469 C 12.332031 28 12.21875 28.148438 12.238281 28.308594 C 12.460938 30.050781 12.257812 31.605469 11.648438 32.933594 C 10.492188 32.6875 9.304688 32.28125 8.910156 32.140625 C 8.851562 31.90625 8.769531 31.378906 9.046875 30.953125 Z M 18.761719 33.601562 C 19.113281 33.710938 19.472656 33.820312 19.84375 33.898438 C 19.46875 34.34375 18.972656 34.808594 18.6875 34.808594 C 18.410156 34.808594 17.683594 34.050781 17.050781 33.222656 C 17.652344 33.265625 18.214844 33.4375 18.761719 33.601562 Z M 2.15625 36.394531 C 3.882812 34.558594 6.066406 33.308594 8.65625 32.671875 C 9.136719 32.84375 11.492188 33.664062 13.058594 33.714844 C 13.972656 33.742188 14.558594 33.59375 15.128906 33.449219 C 15.503906 33.355469 15.871094 33.265625 16.324219 33.226562 C 16.789062 33.875 17.949219 35.390625 18.683594 35.390625 C 19.398438 35.390625 20.210938 34.40625 20.519531 33.992188 C 20.605469 33.996094 20.691406 34 20.777344 34 C 20.863281 34 20.953125 33.996094 21.042969 33.992188 C 21.984375 33.925781 22.773438 33.605469 23.464844 33.324219 C 23.890625 33.152344 24.257812 33.003906 24.578125 32.949219 C 25.378906 32.808594 27.386719 32.679688 27.710938 32.660156 C 30.5625 33.355469 32.929688 34.582031 34.921875 36.394531 Z M 2.15625 36.394531 " fill-opacity="1" fill-rule="nonzero"/></g><path fill="#3a322b" d="M 21.488281 28.082031 C 21.332031 28.128906 21.246094 28.292969 21.292969 28.445312 C 21.664062 29.609375 21.789062 30.785156 21.667969 31.949219 C 21.648438 32.109375 21.765625 32.25 21.929688 32.269531 C 21.9375 32.269531 21.949219 32.269531 21.960938 32.269531 C 22.109375 32.269531 22.234375 32.15625 22.25 32.007812 C 22.382812 30.769531 22.25 29.511719 21.855469 28.269531 C 21.808594 28.117188 21.640625 28.03125 21.488281 28.082031 Z M 21.488281 28.082031 " fill-opacity="1" fill-rule="nonzero"/></svg>